<svg width="1100" height="70" viewBox="0 0 1334 70" fill="none" xmlns="http://www.w3.org/2000/svg">
<path d="M49.3546 8.51562C48.0743 8.51562 46.8741 8.86121 45.8389 9.46156V6.75781C45.8389 5.78703 45.0519 5 44.0811 5H15.9561C14.9852 5 14.1982 5.78703 14.1982 6.75781V9.48301C13.1549 8.8693 11.9409 8.51562 10.6454 8.51562C6.7684 8.51562 3.61418 11.6698 3.61418 15.5469C3.61418 18.5041 4.49051 21.3615 6.14836 23.8102C8.97071 27.9789 12.4511 29.0607 15.3309 30.2127C16.9915 34.348 20.3495 37.6252 24.5384 39.1769L23.2421 47.4219H22.9874C20.0796 47.4219 17.7139 49.7875 17.7139 52.6953V61.4844H15.9561C14.9854 61.4844 14.1983 62.2714 14.1983 63.2422C14.1983 64.213 14.9854 65 15.9561 65H44.0811C45.0519 65 45.8389 64.213 45.8389 63.2422C45.8389 62.2714 45.0519 61.4844 44.0811 61.4844H42.3233V52.6953C42.3233 49.7875 39.9577 47.4219 37.0499 47.4219H36.7951L35.499 39.177C39.694 37.623 43.0557 34.3386 44.7138 30.1948C47.4343 29.1066 51.0005 28.0217 53.8518 23.8102C55.5096 21.3615 56.3859 18.504 56.3859 15.5469C56.3858 11.6698 53.2316 8.51562 49.3546 8.51562ZM14.1852 25.968C9.89918 24.2536 7.12981 20.1631 7.12981 15.5469C7.12981 13.6084 8.70692 12.0312 10.6454 12.0312C12.5839 12.0312 14.1611 13.6084 14.1611 15.5469C14.1611 15.6705 14.1741 15.791 14.1983 15.9073V24.3359C14.1983 24.9009 14.2287 25.4588 14.2868 26.0087L14.1852 25.968ZM38.8077 61.4844H21.2296V57.9688H38.8077V61.4844ZM37.0499 50.9375C38.0191 50.9375 38.8077 51.7261 38.8077 52.6953V54.4531H21.2296V52.6953C21.2296 51.7261 22.0181 50.9375 22.9874 50.9375C23.9411 50.9375 34.8134 50.9375 37.0499 50.9375ZM26.8009 47.4219L27.9641 40.023C28.6368 40.1107 29.3224 40.1562 30.0186 40.1562C30.7148 40.1562 31.4005 40.1105 32.0732 40.023L33.2364 47.4219H26.8009ZM42.3233 24.3359C42.3233 31.1207 36.8034 36.6406 30.0186 36.6406C23.2338 36.6406 17.7139 31.1207 17.7139 24.3359V15.5469H42.3233V24.3359ZM42.3233 12.0312H17.7139V8.51562H42.3233V12.0312ZM45.8147 25.968L45.7522 25.993C45.8092 25.4483 45.8388 24.8955 45.8388 24.3359V15.5469C45.8389 13.6084 47.4161 12.0312 49.3546 12.0312C51.2931 12.0312 52.8702 13.6084 52.8702 15.5469C52.8702 20.1631 50.1008 24.2537 45.8147 25.968Z" fill="#242424"/>
<path d="M86.2 10.55V28H82.7V20.575H75.225V28H71.725V10.55H75.225V17.725H82.7V10.55H86.2ZM91.4199 12.5C90.8033 12.5 90.2866 12.3083 89.8699 11.925C89.4699 11.525 89.2699 11.0333 89.2699 10.45C89.2699 9.86667 89.4699 9.38333 89.8699 9C90.2866 8.6 90.8033 8.4 91.4199 8.4C92.0366 8.4 92.5449 8.6 92.9449 9C93.3616 9.38333 93.5699 9.86667 93.5699 10.45C93.5699 11.0333 93.3616 11.525 92.9449 11.925C92.5449 12.3083 92.0366 12.5 91.4199 12.5ZM93.1449 14.15V28H89.6449V14.15H93.1449ZM102.028 13.925C103.061 13.925 103.97 14.1333 104.753 14.55C105.536 14.95 106.153 15.475 106.603 16.125V14.15H110.128V28.1C110.128 29.3833 109.87 30.525 109.353 31.525C108.836 32.5417 108.061 33.3417 107.028 33.925C105.995 34.525 104.745 34.825 103.278 34.825C101.311 34.825 99.6946 34.3667 98.4279 33.45C97.1779 32.5333 96.4696 31.2833 96.3029 29.7H99.7779C99.9613 30.3333 100.353 30.8333 100.953 31.2C101.57 31.5833 102.311 31.775 103.178 31.775C104.195 31.775 105.02 31.4667 105.653 30.85C106.286 30.25 106.603 29.3333 106.603 28.1V25.95C106.153 26.6 105.528 27.1417 104.728 27.575C103.945 28.0083 103.045 28.225 102.028 28.225C100.861 28.225 99.7946 27.925 98.8279 27.325C97.8613 26.725 97.0946 25.8833 96.5279 24.8C95.9779 23.7 95.7029 22.4417 95.7029 21.025C95.7029 19.625 95.9779 18.3833 96.5279 17.3C97.0946 16.2167 97.8529 15.3833 98.8029 14.8C99.7696 14.2167 100.845 13.925 102.028 13.925ZM106.603 21.075C106.603 20.225 106.436 19.5 106.103 18.9C105.77 18.2833 105.32 17.8167 104.753 17.5C104.186 17.1667 103.578 17 102.928 17C102.278 17 101.678 17.1583 101.128 17.475C100.578 17.7917 100.128 18.2583 99.7779 18.875C99.4446 19.475 99.2779 20.1917 99.2779 21.025C99.2779 21.8583 99.4446 22.5917 99.7779 23.225C100.128 23.8417 100.578 24.3167 101.128 24.65C101.695 24.9833 102.295 25.15 102.928 25.15C103.578 25.15 104.186 24.9917 104.753 24.675C105.32 24.3417 105.77 23.875 106.103 23.275C106.436 22.6583 106.603 21.925 106.603 21.075ZM121.346 13.95C122.396 13.95 123.33 14.1833 124.146 14.65C124.963 15.1 125.596 15.775 126.046 16.675C126.513 17.5583 126.746 18.625 126.746 19.875V28H123.246V20.35C123.246 19.25 122.971 18.4083 122.421 17.825C121.871 17.225 121.121 16.925 120.171 16.925C119.205 16.925 118.438 17.225 117.871 17.825C117.321 18.4083 117.046 19.25 117.046 20.35V28H113.546V9.5H117.046V15.875C117.496 15.275 118.096 14.8083 118.846 14.475C119.596 14.125 120.43 13.95 121.346 13.95ZM149.032 31.075L146.382 27.9C145.648 28.0833 144.898 28.175 144.132 28.175C142.498 28.175 140.998 27.7917 139.632 27.025C138.265 26.2583 137.182 25.2 136.382 23.85C135.582 22.4833 135.182 20.9417 135.182 19.225C135.182 17.525 135.582 16 136.382 14.65C137.182 13.2833 138.265 12.2167 139.632 11.45C140.998 10.6833 142.498 10.3 144.132 10.3C145.782 10.3 147.282 10.6833 148.632 11.45C149.998 12.2167 151.073 13.2833 151.857 14.65C152.657 16 153.057 17.525 153.057 19.225C153.057 20.775 152.723 22.1917 152.057 23.475C151.407 24.7417 150.515 25.775 149.382 26.575L153.382 31.075H149.032ZM138.782 19.225C138.782 20.3917 139.007 21.4167 139.457 22.3C139.907 23.1833 140.532 23.8667 141.332 24.35C142.148 24.8167 143.082 25.05 144.132 25.05C145.182 25.05 146.107 24.8167 146.907 24.35C147.707 23.8667 148.332 23.1833 148.782 22.3C149.232 21.4167 149.457 20.3917 149.457 19.225C149.457 18.0583 149.232 17.0417 148.782 16.175C148.332 15.2917 147.707 14.6167 146.907 14.15C146.107 13.6833 145.182 13.45 144.132 13.45C143.082 13.45 142.148 13.6833 141.332 14.15C140.532 14.6167 139.907 15.2917 139.457 16.175C139.007 17.0417 138.782 18.0583 138.782 19.225ZM168.784 14.15V28H165.259V26.25C164.809 26.85 164.218 27.325 163.484 27.675C162.768 28.0083 161.984 28.175 161.134 28.175C160.051 28.175 159.093 27.95 158.259 27.5C157.426 27.0333 156.768 26.3583 156.284 25.475C155.818 24.575 155.584 23.5083 155.584 22.275V14.15H159.084V21.775C159.084 22.875 159.359 23.725 159.909 24.325C160.459 24.9083 161.209 25.2 162.159 25.2C163.126 25.2 163.884 24.9083 164.434 24.325C164.984 23.725 165.259 22.875 165.259 21.775V14.15H168.784ZM171.338 21.025C171.338 19.625 171.613 18.3833 172.163 17.3C172.729 16.2167 173.488 15.3833 174.438 14.8C175.404 14.2167 176.479 13.925 177.663 13.925C178.696 13.925 179.596 14.1333 180.363 14.55C181.146 14.9667 181.771 15.4917 182.238 16.125V14.15H185.763V28H182.238V25.975C181.788 26.625 181.163 27.1667 180.363 27.6C179.579 28.0167 178.671 28.225 177.638 28.225C176.471 28.225 175.404 27.925 174.438 27.325C173.488 26.725 172.729 25.8833 172.163 24.8C171.613 23.7 171.338 22.4417 171.338 21.025ZM182.238 21.075C182.238 20.225 182.071 19.5 181.738 18.9C181.404 18.2833 180.954 17.8167 180.388 17.5C179.821 17.1667 179.213 17 178.563 17C177.913 17 177.313 17.1583 176.763 17.475C176.213 17.7917 175.763 18.2583 175.413 18.875C175.079 19.475 174.913 20.1917 174.913 21.025C174.913 21.8583 175.079 22.5917 175.413 23.225C175.763 23.8417 176.213 24.3167 176.763 24.65C177.329 24.9833 177.929 25.15 178.563 25.15C179.213 25.15 179.821 24.9917 180.388 24.675C180.954 24.3417 181.404 23.875 181.738 23.275C182.071 22.6583 182.238 21.925 182.238 21.075ZM192.681 9.5V28H189.181V9.5H192.681ZM197.914 12.5C197.297 12.5 196.781 12.3083 196.364 11.925C195.964 11.525 195.764 11.0333 195.764 10.45C195.764 9.86667 195.964 9.38333 196.364 9C196.781 8.6 197.297 8.4 197.914 8.4C198.531 8.4 199.039 8.6 199.439 9C199.856 9.38333 200.064 9.86667 200.064 10.45C200.064 11.0333 199.856 11.525 199.439 11.925C199.039 12.3083 198.531 12.5 197.914 12.5ZM199.639 14.15V28H196.139V14.15H199.639ZM207.172 17.025V23.725C207.172 24.1917 207.28 24.5333 207.497 24.75C207.73 24.95 208.114 25.05 208.647 25.05H210.272V28H208.072C205.122 28 203.647 26.5667 203.647 23.7V17.025H201.997V14.15H203.647V10.725H207.172V14.15H210.272V17.025H207.172ZM226.039 14.15L217.464 34.55H213.739L216.739 27.65L211.189 14.15H215.114L218.689 23.825L222.314 14.15H226.039Z" fill="#242424"/>
<path d="M70.74 56.48C70.74 55.3467 70.9667 54.3533 71.42 53.5C71.8867 52.6333 72.5267 51.9667 73.34 51.5C74.1533 51.0333 75.0867 50.8 76.14 50.8C77.4733 50.8 78.5733 51.12 79.44 51.76C80.32 52.3867 80.9133 53.2867 81.22 54.46H78.76C78.56 53.9133 78.24 53.4867 77.8 53.18C77.36 52.8733 76.8067 52.72 76.14 52.72C75.2067 52.72 74.46 53.0533 73.9 53.72C73.3533 54.3733 73.08 55.2933 73.08 56.48C73.08 57.6667 73.3533 58.5933 73.9 59.26C74.46 59.9267 75.2067 60.26 76.14 60.26C77.46 60.26 78.3333 59.68 78.76 58.52H81.22C80.9 59.64 80.3 60.5333 79.42 61.2C78.54 61.8533 77.4467 62.18 76.14 62.18C75.0867 62.18 74.1533 61.9467 73.34 61.48C72.5267 61 71.8867 60.3333 71.42 59.48C70.9667 58.6133 70.74 57.6133 70.74 56.48ZM85.7722 52.58C86.1055 52.02 86.5455 51.5867 87.0922 51.28C87.6522 50.96 88.3122 50.8 89.0722 50.8V53.16H88.4922C87.5989 53.16 86.9189 53.3867 86.4522 53.84C85.9989 54.2933 85.7722 55.08 85.7722 56.2V62H83.4922V50.98H85.7722V52.58ZM90.408 56.44C90.408 55.3333 90.6346 54.3533 91.088 53.5C91.5546 52.6467 92.1813 51.9867 92.968 51.52C93.768 51.04 94.648 50.8 95.608 50.8C96.4746 50.8 97.228 50.9733 97.868 51.32C98.5213 51.6533 99.0413 52.0733 99.428 52.58V50.98H101.728V62H99.428V60.36C99.0413 60.88 98.5146 61.3133 97.848 61.66C97.1813 62.0067 96.4213 62.18 95.568 62.18C94.6213 62.18 93.7546 61.94 92.968 61.46C92.1813 60.9667 91.5546 60.2867 91.088 59.42C90.6346 58.54 90.408 57.5467 90.408 56.44ZM99.428 56.48C99.428 55.72 99.268 55.06 98.948 54.5C98.6413 53.94 98.2346 53.5133 97.728 53.22C97.2213 52.9267 96.6746 52.78 96.088 52.78C95.5013 52.78 94.9546 52.9267 94.448 53.22C93.9413 53.5 93.528 53.92 93.208 54.48C92.9013 55.0267 92.748 55.68 92.748 56.44C92.748 57.2 92.9013 57.8667 93.208 58.44C93.528 59.0133 93.9413 59.4533 94.448 59.76C94.968 60.0533 95.5146 60.2 96.088 60.2C96.6746 60.2 97.2213 60.0533 97.728 59.76C98.2346 59.4667 98.6413 59.04 98.948 58.48C99.268 57.9067 99.428 57.24 99.428 56.48ZM109.343 52.84H107.303V62H105.003V52.84H103.703V50.98H105.003V50.2C105.003 48.9333 105.336 48.0133 106.003 47.44C106.683 46.8533 107.743 46.56 109.183 46.56V48.46C108.489 48.46 108.003 48.5933 107.723 48.86C107.443 49.1133 107.303 49.56 107.303 50.2V50.98H109.343V52.84ZM114.023 52.84V58.94C114.023 59.3533 114.117 59.6533 114.303 59.84C114.503 60.0133 114.837 60.1 115.303 60.1H116.703V62H114.903C113.877 62 113.09 61.76 112.543 61.28C111.997 60.8 111.723 60.02 111.723 58.94V52.84H110.423V50.98H111.723V48.24H114.023V50.98H116.703V52.84H114.023ZM128.905 56.22C128.905 56.6333 128.878 57.0067 128.825 57.34H120.405C120.471 58.22 120.798 58.9267 121.385 59.46C121.971 59.9933 122.691 60.26 123.545 60.26C124.771 60.26 125.638 59.7467 126.145 58.72H128.605C128.271 59.7333 127.665 60.5667 126.785 61.22C125.918 61.86 124.838 62.18 123.545 62.18C122.491 62.18 121.545 61.9467 120.705 61.48C119.878 61 119.225 60.3333 118.745 59.48C118.278 58.6133 118.045 57.6133 118.045 56.48C118.045 55.3467 118.271 54.3533 118.725 53.5C119.191 52.6333 119.838 51.9667 120.665 51.5C121.505 51.0333 122.465 50.8 123.545 50.8C124.585 50.8 125.511 51.0267 126.325 51.48C127.138 51.9333 127.771 52.5733 128.225 53.4C128.678 54.2133 128.905 55.1533 128.905 56.22ZM126.525 55.5C126.511 54.66 126.211 53.9867 125.625 53.48C125.038 52.9733 124.311 52.72 123.445 52.72C122.658 52.72 121.985 52.9733 121.425 53.48C120.865 53.9733 120.531 54.6467 120.425 55.5H126.525ZM130.388 56.44C130.388 55.3333 130.615 54.3533 131.068 53.5C131.535 52.6467 132.162 51.9867 132.948 51.52C133.748 51.04 134.635 50.8 135.608 50.8C136.328 50.8 137.035 50.96 137.728 51.28C138.435 51.5867 138.995 52 139.408 52.52V47.2H141.708V62H139.408V60.34C139.035 60.8733 138.515 61.3133 137.848 61.66C137.195 62.0067 136.442 62.18 135.588 62.18C134.628 62.18 133.748 61.94 132.948 61.46C132.162 60.9667 131.535 60.2867 131.068 59.42C130.615 58.54 130.388 57.5467 130.388 56.44ZM139.408 56.48C139.408 55.72 139.248 55.06 138.928 54.5C138.622 53.94 138.215 53.5133 137.708 53.22C137.202 52.9267 136.655 52.78 136.068 52.78C135.482 52.78 134.935 52.9267 134.428 53.22C133.922 53.5 133.508 53.92 133.188 54.48C132.882 55.0267 132.728 55.68 132.728 56.44C132.728 57.2 132.882 57.8667 133.188 58.44C133.508 59.0133 133.922 59.4533 134.428 59.76C134.948 60.0533 135.495 60.2 136.068 60.2C136.655 60.2 137.202 60.0533 137.708 59.76C138.215 59.4667 138.622 59.04 138.928 58.48C139.248 57.9067 139.408 57.24 139.408 56.48ZM154.518 52.84H152.478V62H150.178V52.84H148.878V50.98H150.178V50.2C150.178 48.9333 150.512 48.0133 151.178 47.44C151.858 46.8533 152.918 46.56 154.358 46.56V48.46C153.665 48.46 153.178 48.5933 152.898 48.86C152.618 49.1133 152.478 49.56 152.478 50.2V50.98H154.518V52.84ZM158.819 52.58C159.152 52.02 159.592 51.5867 160.139 51.28C160.699 50.96 161.359 50.8 162.119 50.8V53.16H161.539C160.646 53.16 159.966 53.3867 159.499 53.84C159.046 54.2933 158.819 55.08 158.819 56.2V62H156.539V50.98H158.819V52.58ZM168.995 62.18C167.955 62.18 167.015 61.9467 166.175 61.48C165.335 61 164.675 60.3333 164.195 59.48C163.715 58.6133 163.475 57.6133 163.475 56.48C163.475 55.36 163.722 54.3667 164.215 53.5C164.708 52.6333 165.382 51.9667 166.235 51.5C167.088 51.0333 168.042 50.8 169.095 50.8C170.148 50.8 171.102 51.0333 171.955 51.5C172.808 51.9667 173.482 52.6333 173.975 53.5C174.468 54.3667 174.715 55.36 174.715 56.48C174.715 57.6 174.462 58.5933 173.955 59.46C173.448 60.3267 172.755 61 171.875 61.48C171.008 61.9467 170.048 62.18 168.995 62.18ZM168.995 60.2C169.582 60.2 170.128 60.06 170.635 59.78C171.155 59.5 171.575 59.08 171.895 58.52C172.215 57.96 172.375 57.28 172.375 56.48C172.375 55.68 172.222 55.0067 171.915 54.46C171.608 53.9 171.202 53.48 170.695 53.2C170.188 52.92 169.642 52.78 169.055 52.78C168.468 52.78 167.922 52.92 167.415 53.2C166.922 53.48 166.528 53.9 166.235 54.46C165.942 55.0067 165.795 55.68 165.795 56.48C165.795 57.6667 166.095 58.5867 166.695 59.24C167.308 59.88 168.075 60.2 168.995 60.2ZM190.309 50.8C191.175 50.8 191.949 50.98 192.629 51.34C193.322 51.7 193.862 52.2333 194.249 52.94C194.649 53.6467 194.849 54.5 194.849 55.5V62H192.589V55.84C192.589 54.8533 192.342 54.1 191.849 53.58C191.355 53.0467 190.682 52.78 189.829 52.78C188.975 52.78 188.295 53.0467 187.789 53.58C187.295 54.1 187.049 54.8533 187.049 55.84V62H184.789V55.84C184.789 54.8533 184.542 54.1 184.049 53.58C183.555 53.0467 182.882 52.78 182.029 52.78C181.175 52.78 180.495 53.0467 179.989 53.58C179.495 54.1 179.249 54.8533 179.249 55.84V62H176.969V50.98H179.249V52.24C179.622 51.7867 180.095 51.4333 180.669 51.18C181.242 50.9267 181.855 50.8 182.509 50.8C183.389 50.8 184.175 50.9867 184.869 51.36C185.562 51.7333 186.095 52.2733 186.469 52.98C186.802 52.3133 187.322 51.7867 188.029 51.4C188.735 51 189.495 50.8 190.309 50.8ZM205.605 52.84V58.94C205.605 59.3533 205.699 59.6533 205.885 59.84C206.085 60.0133 206.419 60.1 206.885 60.1H208.285V62H206.485C205.459 62 204.672 61.76 204.125 61.28C203.579 60.8 203.305 60.02 203.305 58.94V52.84H202.005V50.98H203.305V48.24H205.605V50.98H208.285V52.84H205.605ZM215.167 62.18C214.127 62.18 213.187 61.9467 212.347 61.48C211.507 61 210.847 60.3333 210.367 59.48C209.887 58.6133 209.647 57.6133 209.647 56.48C209.647 55.36 209.893 54.3667 210.387 53.5C210.88 52.6333 211.553 51.9667 212.407 51.5C213.26 51.0333 214.213 50.8 215.267 50.8C216.32 50.8 217.273 51.0333 218.127 51.5C218.98 51.9667 219.653 52.6333 220.147 53.5C220.64 54.3667 220.887 55.36 220.887 56.48C220.887 57.6 220.633 58.5933 220.127 59.46C219.62 60.3267 218.927 61 218.047 61.48C217.18 61.9467 216.22 62.18 215.167 62.18ZM215.167 60.2C215.753 60.2 216.3 60.06 216.807 59.78C217.327 59.5 217.747 59.08 218.067 58.52C218.387 57.96 218.547 57.28 218.547 56.48C218.547 55.68 218.393 55.0067 218.087 54.46C217.78 53.9 217.373 53.48 216.867 53.2C216.36 52.92 215.813 52.78 215.227 52.78C214.64 52.78 214.093 52.92 213.587 53.2C213.093 53.48 212.7 53.9 212.407 54.46C212.113 55.0067 211.967 55.68 211.967 56.48C211.967 57.6667 212.267 58.5867 212.867 59.24C213.48 59.88 214.247 60.2 215.167 60.2ZM225.421 52.6C225.807 52.0933 226.334 51.6667 227.001 51.32C227.667 50.9733 228.421 50.8 229.261 50.8C230.221 50.8 231.094 51.04 231.881 51.52C232.681 51.9867 233.307 52.6467 233.761 53.5C234.214 54.3533 234.441 55.3333 234.441 56.44C234.441 57.5467 234.214 58.54 233.761 59.42C233.307 60.2867 232.681 60.9667 231.881 61.46C231.094 61.94 230.221 62.18 229.261 62.18C228.421 62.18 227.674 62.0133 227.021 61.68C226.367 61.3333 225.834 60.9067 225.421 60.4V67.24H223.141V50.98H225.421V52.6ZM232.121 56.44C232.121 55.68 231.961 55.0267 231.641 54.48C231.334 53.92 230.921 53.5 230.401 53.22C229.894 52.9267 229.347 52.78 228.761 52.78C228.187 52.78 227.641 52.9267 227.121 53.22C226.614 53.5133 226.201 53.94 225.881 54.5C225.574 55.06 225.421 55.72 225.421 56.48C225.421 57.24 225.574 57.9067 225.881 58.48C226.201 59.04 226.614 59.4667 227.121 59.76C227.641 60.0533 228.187 60.2 228.761 60.2C229.347 60.2 229.894 60.0533 230.401 59.76C230.921 59.4533 231.334 59.0133 231.641 58.44C231.961 57.8667 232.121 57.2 232.121 56.44ZM255.231 50.8C256.097 50.8 256.871 50.98 257.551 51.34C258.244 51.7 258.784 52.2333 259.171 52.94C259.571 53.6467 259.771 54.5 259.771 55.5V62H257.511V55.84C257.511 54.8533 257.264 54.1 256.771 53.58C256.277 53.0467 255.604 52.78 254.751 52.78C253.897 52.78 253.217 53.0467 252.711 53.58C252.217 54.1 251.971 54.8533 251.971 55.84V62H249.711V55.84C249.711 54.8533 249.464 54.1 248.971 53.58C248.477 53.0467 247.804 52.78 246.951 52.78C246.097 52.78 245.417 53.0467 244.911 53.58C244.417 54.1 244.171 54.8533 244.171 55.84V62H241.891V50.98H244.171V52.24C244.544 51.7867 245.017 51.4333 245.591 51.18C246.164 50.9267 246.777 50.8 247.431 50.8C248.311 50.8 249.097 50.9867 249.791 51.36C250.484 51.7333 251.017 52.2733 251.391 52.98C251.724 52.3133 252.244 51.7867 252.951 51.4C253.657 51 254.417 50.8 255.231 50.8ZM261.912 56.44C261.912 55.3333 262.139 54.3533 262.592 53.5C263.059 52.6467 263.685 51.9867 264.472 51.52C265.272 51.04 266.152 50.8 267.112 50.8C267.979 50.8 268.732 50.9733 269.372 51.32C270.025 51.6533 270.545 52.0733 270.932 52.58V50.98H273.232V62H270.932V60.36C270.545 60.88 270.019 61.3133 269.352 61.66C268.685 62.0067 267.925 62.18 267.072 62.18C266.125 62.18 265.259 61.94 264.472 61.46C263.685 60.9667 263.059 60.2867 262.592 59.42C262.139 58.54 261.912 57.5467 261.912 56.44ZM270.932 56.48C270.932 55.72 270.772 55.06 270.452 54.5C270.145 53.94 269.739 53.5133 269.232 53.22C268.725 52.9267 268.179 52.78 267.592 52.78C267.005 52.78 266.459 52.9267 265.952 53.22C265.445 53.5 265.032 53.92 264.712 54.48C264.405 55.0267 264.252 55.68 264.252 56.44C264.252 57.2 264.405 57.8667 264.712 58.44C265.032 59.0133 265.445 59.4533 265.952 59.76C266.472 60.0533 267.019 60.2 267.592 60.2C268.179 60.2 268.725 60.0533 269.232 59.76C269.739 59.4667 270.145 59.04 270.452 58.48C270.772 57.9067 270.932 57.24 270.932 56.48ZM278.887 52.84V58.94C278.887 59.3533 278.98 59.6533 279.167 59.84C279.367 60.0133 279.7 60.1 280.167 60.1H281.567V62H279.767C278.74 62 277.953 61.76 277.407 61.28C276.86 60.8 276.587 60.02 276.587 58.94V52.84H275.287V50.98H276.587V48.24H278.887V50.98H281.567V52.84H278.887ZM293.768 56.22C293.768 56.6333 293.741 57.0067 293.688 57.34H285.268C285.335 58.22 285.661 58.9267 286.248 59.46C286.835 59.9933 287.555 60.26 288.408 60.26C289.635 60.26 290.501 59.7467 291.008 58.72H293.468C293.135 59.7333 292.528 60.5667 291.648 61.22C290.781 61.86 289.701 62.18 288.408 62.18C287.355 62.18 286.408 61.9467 285.568 61.48C284.741 61 284.088 60.3333 283.608 59.48C283.141 58.6133 282.908 57.6133 282.908 56.48C282.908 55.3467 283.135 54.3533 283.588 53.5C284.055 52.6333 284.701 51.9667 285.528 51.5C286.368 51.0333 287.328 50.8 288.408 50.8C289.448 50.8 290.375 51.0267 291.188 51.48C292.001 51.9333 292.635 52.5733 293.088 53.4C293.541 54.2133 293.768 55.1533 293.768 56.22ZM291.388 55.5C291.375 54.66 291.075 53.9867 290.488 53.48C289.901 52.9733 289.175 52.72 288.308 52.72C287.521 52.72 286.848 52.9733 286.288 53.48C285.728 53.9733 285.395 54.6467 285.288 55.5H291.388ZM298.292 52.58C298.625 52.02 299.065 51.5867 299.612 51.28C300.172 50.96 300.832 50.8 301.592 50.8V53.16H301.012C300.118 53.16 299.438 53.3867 298.972 53.84C298.518 54.2933 298.292 55.08 298.292 56.2V62H296.012V50.98H298.292V52.58ZM304.848 49.52C304.434 49.52 304.088 49.38 303.808 49.1C303.528 48.82 303.388 48.4733 303.388 48.06C303.388 47.6467 303.528 47.3 303.808 47.02C304.088 46.74 304.434 46.6 304.848 46.6C305.248 46.6 305.588 46.74 305.868 47.02C306.148 47.3 306.288 47.6467 306.288 48.06C306.288 48.4733 306.148 48.82 305.868 49.1C305.588 49.38 305.248 49.52 304.848 49.52ZM305.968 50.98V62H303.688V50.98H305.968ZM308.201 56.44C308.201 55.3333 308.428 54.3533 308.881 53.5C309.348 52.6467 309.974 51.9867 310.761 51.52C311.561 51.04 312.441 50.8 313.401 50.8C314.268 50.8 315.021 50.9733 315.661 51.32C316.314 51.6533 316.834 52.0733 317.221 52.58V50.98H319.521V62H317.221V60.36C316.834 60.88 316.308 61.3133 315.641 61.66C314.974 62.0067 314.214 62.18 313.361 62.18C312.414 62.18 311.548 61.94 310.761 61.46C309.974 60.9667 309.348 60.2867 308.881 59.42C308.428 58.54 308.201 57.5467 308.201 56.44ZM317.221 56.48C317.221 55.72 317.061 55.06 316.741 54.5C316.434 53.94 316.028 53.5133 315.521 53.22C315.014 52.9267 314.468 52.78 313.881 52.78C313.294 52.78 312.748 52.9267 312.241 53.22C311.734 53.5 311.321 53.92 311.001 54.48C310.694 55.0267 310.541 55.68 310.541 56.44C310.541 57.2 310.694 57.8667 311.001 58.44C311.321 59.0133 311.734 59.4533 312.241 59.76C312.761 60.0533 313.308 60.2 313.881 60.2C314.468 60.2 315.014 60.0533 315.521 59.76C316.028 59.4667 316.434 59.04 316.741 58.48C317.061 57.9067 317.221 57.24 317.221 56.48ZM324.796 47.2V62H322.516V47.2H324.796ZM331.789 62.18C330.922 62.18 330.142 62.0267 329.449 61.72C328.769 61.4 328.229 60.9733 327.829 60.44C327.429 59.8933 327.216 59.2867 327.189 58.62H329.549C329.589 59.0867 329.809 59.48 330.209 59.8C330.622 60.1067 331.136 60.26 331.749 60.26C332.389 60.26 332.882 60.14 333.229 59.9C333.589 59.6467 333.769 59.3267 333.769 58.94C333.769 58.5267 333.569 58.22 333.169 58.02C332.782 57.82 332.162 57.6 331.309 57.36C330.482 57.1333 329.809 56.9133 329.289 56.7C328.769 56.4867 328.316 56.16 327.929 55.72C327.556 55.28 327.369 54.7 327.369 53.98C327.369 53.3933 327.542 52.86 327.889 52.38C328.236 51.8867 328.729 51.5 329.369 51.22C330.022 50.94 330.769 50.8 331.609 50.8C332.862 50.8 333.869 51.12 334.629 51.76C335.402 52.3867 335.816 53.2467 335.869 54.34H333.589C333.549 53.8467 333.349 53.4533 332.989 53.16C332.629 52.8667 332.142 52.72 331.529 52.72C330.929 52.72 330.469 52.8333 330.149 53.06C329.829 53.2867 329.669 53.5867 329.669 53.96C329.669 54.2533 329.776 54.5 329.989 54.7C330.202 54.9 330.462 55.06 330.769 55.18C331.076 55.2867 331.529 55.4267 332.129 55.6C332.929 55.8133 333.582 56.0333 334.089 56.26C334.609 56.4733 335.056 56.7933 335.429 57.22C335.802 57.6467 335.996 58.2133 336.009 58.92C336.009 59.5467 335.836 60.1067 335.489 60.6C335.142 61.0933 334.649 61.48 334.009 61.76C333.382 62.04 332.642 62.18 331.789 62.18Z" fill="#898989"/>
<g clip-path="url(#clip0_117_611)">
<path d="M449.119 26.2612C448.328 23.8097 448.665 20.1296 446.607 17.2882C444.533 14.4244 440.926 13.6104 438.889 12.1207C436.874 10.6467 434.999 7.43918 431.609 6.33293C428.314 5.25785 424.945 6.71672 422.333 6.71672C419.722 6.71672 416.353 5.2575 413.058 6.33281C409.668 7.43883 407.792 10.6471 405.778 12.1204C403.743 13.6083 400.133 14.4245 398.06 17.2879C396.004 20.127 396.338 23.8154 395.547 26.2611C394.795 28.5888 392.333 31.3825 392.333 35.0003C392.333 38.6203 394.792 41.4032 395.547 43.7393C396.339 46.1909 396.002 49.8709 398.059 52.7123C400.133 55.5763 403.74 56.3902 405.777 57.88C407.792 59.3537 409.668 62.5615 413.058 63.6676C416.35 64.742 419.724 63.2838 422.333 63.2838C424.939 63.2838 428.321 64.7405 431.609 63.6677C434.999 62.5617 436.874 59.3542 438.889 57.8802C440.924 56.3923 444.533 55.5761 446.607 52.7127C448.663 49.8735 448.329 46.1854 449.119 43.7394C449.871 41.4116 452.333 38.618 452.333 35.0003C452.333 31.3805 449.875 28.5984 449.119 26.2612ZM444.659 42.298C443.736 45.1545 443.978 48.3512 442.811 49.963C441.628 51.5962 438.52 52.3423 436.122 54.0963C433.75 55.8308 432.088 58.5804 430.155 59.2112C428.326 59.8082 425.345 58.5961 422.333 58.5961C419.3 58.5961 416.35 59.8107 414.512 59.2112C412.579 58.5804 410.919 55.8327 408.545 54.0962C406.161 52.3528 403.035 51.5914 401.856 49.9628C400.692 48.3564 400.925 45.1375 400.008 42.2981C399.109 39.5162 397.021 37.1074 397.021 35.0003C397.021 32.891 399.107 30.4905 400.008 27.7025C400.93 24.8462 400.689 21.6492 401.856 20.0375C403.038 18.4054 406.148 17.6569 408.545 15.9042C410.924 14.1641 412.576 11.4211 414.512 10.7893C416.339 10.1931 419.33 11.4045 422.333 11.4045C425.372 11.4045 428.315 10.189 430.155 10.7893C432.088 11.42 433.749 14.1688 436.122 15.9043C438.506 17.6477 441.631 18.4091 442.811 20.0377C443.974 21.6444 443.741 24.86 444.659 27.7023V27.7024C445.558 30.4843 447.646 32.8931 447.646 35.0003C447.646 37.1095 445.56 39.51 444.659 42.298ZM433.131 27.4774C434.047 28.3928 434.047 29.8767 433.131 30.792L421.4 42.5231C420.485 43.4385 419.001 43.4384 418.086 42.5231L411.535 35.973C410.62 35.0577 410.62 33.5737 411.535 32.6585C412.451 31.7433 413.935 31.7432 414.85 32.6585L419.743 37.5513L429.817 27.4775C430.732 26.5622 432.216 26.5622 433.131 27.4774Z" fill="#242424"/>
</g>
<path d="M487.383 10.55L482.508 28H478.383L475.108 15.575L471.683 28L467.583 28.025L462.883 10.55H466.633L469.708 24.1L473.258 10.55H477.158L480.508 24.025L483.608 10.55H487.383ZM488.769 21.025C488.769 19.625 489.044 18.3833 489.594 17.3C490.16 16.2167 490.919 15.3833 491.869 14.8C492.835 14.2167 493.91 13.925 495.094 13.925C496.127 13.925 497.027 14.1333 497.794 14.55C498.577 14.9667 499.202 15.4917 499.669 16.125V14.15H503.194V28H499.669V25.975C499.219 26.625 498.594 27.1667 497.794 27.6C497.01 28.0167 496.102 28.225 495.069 28.225C493.902 28.225 492.835 27.925 491.869 27.325C490.919 26.725 490.16 25.8833 489.594 24.8C489.044 23.7 488.769 22.4417 488.769 21.025ZM499.669 21.075C499.669 20.225 499.502 19.5 499.169 18.9C498.835 18.2833 498.385 17.8167 497.819 17.5C497.252 17.1667 496.644 17 495.994 17C495.344 17 494.744 17.1583 494.194 17.475C493.644 17.7917 493.194 18.2583 492.844 18.875C492.51 19.475 492.344 20.1917 492.344 21.025C492.344 21.8583 492.51 22.5917 492.844 23.225C493.194 23.8417 493.644 24.3167 494.194 24.65C494.76 24.9833 495.36 25.15 495.994 25.15C496.644 25.15 497.252 24.9917 497.819 24.675C498.385 24.3417 498.835 23.875 499.169 23.275C499.502 22.6583 499.669 21.925 499.669 21.075ZM510.112 16.3C510.562 15.5667 511.145 14.9917 511.862 14.575C512.595 14.1583 513.429 13.95 514.362 13.95V17.625H513.437C512.337 17.625 511.504 17.8833 510.937 18.4C510.387 18.9167 510.112 19.8167 510.112 21.1V28H506.612V14.15H510.112V16.3ZM520.219 16.3C520.669 15.5667 521.253 14.9917 521.969 14.575C522.703 14.1583 523.536 13.95 524.469 13.95V17.625H523.544C522.444 17.625 521.611 17.8833 521.044 18.4C520.494 18.9167 520.219 19.8167 520.219 21.1V28H516.719V14.15H520.219V16.3ZM525.927 21.025C525.927 19.625 526.202 18.3833 526.752 17.3C527.319 16.2167 528.077 15.3833 529.027 14.8C529.994 14.2167 531.069 13.925 532.252 13.925C533.285 13.925 534.185 14.1333 534.952 14.55C535.735 14.9667 536.36 15.4917 536.827 16.125V14.15H540.352V28H536.827V25.975C536.377 26.625 535.752 27.1667 534.952 27.6C534.169 28.0167 533.26 28.225 532.227 28.225C531.06 28.225 529.994 27.925 529.027 27.325C528.077 26.725 527.319 25.8833 526.752 24.8C526.202 23.7 525.927 22.4417 525.927 21.025ZM536.827 21.075C536.827 20.225 536.66 19.5 536.327 18.9C535.994 18.2833 535.544 17.8167 534.977 17.5C534.41 17.1667 533.802 17 533.152 17C532.502 17 531.902 17.1583 531.352 17.475C530.802 17.7917 530.352 18.2583 530.002 18.875C529.669 19.475 529.502 20.1917 529.502 21.025C529.502 21.8583 529.669 22.5917 530.002 23.225C530.352 23.8417 530.802 24.3167 531.352 24.65C531.919 24.9833 532.519 25.15 533.152 25.15C533.802 25.15 534.41 24.9917 534.977 24.675C535.544 24.3417 535.994 23.875 536.327 23.275C536.66 22.6583 536.827 21.925 536.827 21.075ZM551.445 13.95C553.095 13.95 554.429 14.475 555.445 15.525C556.462 16.5583 556.97 18.0083 556.97 19.875V28H553.47V20.35C553.47 19.25 553.195 18.4083 552.645 17.825C552.095 17.225 551.345 16.925 550.395 16.925C549.429 16.925 548.662 17.225 548.095 17.825C547.545 18.4083 547.27 19.25 547.27 20.35V28H543.77V14.15H547.27V15.875C547.737 15.275 548.329 14.8083 549.045 14.475C549.779 14.125 550.579 13.95 551.445 13.95ZM564.374 17.025V23.725C564.374 24.1917 564.482 24.5333 564.699 24.75C564.932 24.95 565.315 25.05 565.849 25.05H567.474V28H565.274C562.324 28 560.849 26.5667 560.849 23.7V17.025H559.199V14.15H560.849V10.725H564.374V14.15H567.474V17.025H564.374ZM583.241 14.15L574.666 34.55H570.941L573.941 27.65L568.391 14.15H572.316L575.891 23.825L579.516 14.15H583.241ZM603.81 15.95C603.81 16.8833 603.585 17.7583 603.135 18.575C602.701 19.3917 602.01 20.05 601.06 20.55C600.126 21.05 598.943 21.3 597.51 21.3H594.585V28H591.085V10.55H597.51C598.86 10.55 600.01 10.7833 600.96 11.25C601.91 11.7167 602.618 12.3583 603.085 13.175C603.568 13.9917 603.81 14.9167 603.81 15.95ZM597.36 18.475C598.326 18.475 599.043 18.2583 599.51 17.825C599.976 17.375 600.21 16.75 600.21 15.95C600.21 14.25 599.26 13.4 597.36 13.4H594.585V18.475H597.36ZM609.795 16.3C610.245 15.5667 610.828 14.9917 611.545 14.575C612.278 14.1583 613.111 13.95 614.045 13.95V17.625H613.12C612.02 17.625 611.186 17.8833 610.62 18.4C610.07 18.9167 609.795 19.8167 609.795 21.1V28H606.295V14.15H609.795V16.3ZM622.552 28.225C621.219 28.225 620.019 27.9333 618.952 27.35C617.885 26.75 617.044 25.9083 616.427 24.825C615.827 23.7417 615.527 22.4917 615.527 21.075C615.527 19.6583 615.835 18.4083 616.452 17.325C617.085 16.2417 617.944 15.4083 619.027 14.825C620.11 14.225 621.319 13.925 622.652 13.925C623.985 13.925 625.194 14.225 626.277 14.825C627.36 15.4083 628.21 16.2417 628.827 17.325C629.46 18.4083 629.777 19.6583 629.777 21.075C629.777 22.4917 629.452 23.7417 628.802 24.825C628.169 25.9083 627.302 26.75 626.202 27.35C625.119 27.9333 623.902 28.225 622.552 28.225ZM622.552 25.175C623.185 25.175 623.777 25.025 624.327 24.725C624.894 24.4083 625.344 23.9417 625.677 23.325C626.01 22.7083 626.177 21.9583 626.177 21.075C626.177 19.7583 625.827 18.75 625.127 18.05C624.444 17.3333 623.602 16.975 622.602 16.975C621.602 16.975 620.76 17.3333 620.077 18.05C619.41 18.75 619.077 19.7583 619.077 21.075C619.077 22.3917 619.402 23.4083 620.052 24.125C620.719 24.825 621.552 25.175 622.552 25.175ZM636.419 17.025V23.725C636.419 24.1917 636.528 24.5333 636.744 24.75C636.978 24.95 637.361 25.05 637.894 25.05H639.519V28H637.319C634.369 28 632.894 26.5667 632.894 23.7V17.025H631.244V14.15H632.894V10.725H636.419V14.15H639.519V17.025H636.419ZM654.912 20.775C654.912 21.275 654.879 21.725 654.812 22.125H644.687C644.77 23.125 645.12 23.9083 645.737 24.475C646.354 25.0417 647.112 25.325 648.012 25.325C649.312 25.325 650.237 24.7667 650.787 23.65H654.562C654.162 24.9833 653.395 26.0833 652.262 26.95C651.129 27.8 649.737 28.225 648.087 28.225C646.754 28.225 645.554 27.9333 644.487 27.35C643.437 26.75 642.612 25.9083 642.012 24.825C641.429 23.7417 641.137 22.4917 641.137 21.075C641.137 19.6417 641.429 18.3833 642.012 17.3C642.595 16.2167 643.412 15.3833 644.462 14.8C645.512 14.2167 646.72 13.925 648.087 13.925C649.404 13.925 650.579 14.2083 651.612 14.775C652.662 15.3417 653.47 16.15 654.037 17.2C654.62 18.2333 654.912 19.425 654.912 20.775ZM651.287 19.775C651.27 18.875 650.945 18.1583 650.312 17.625C649.679 17.075 648.904 16.8 647.987 16.8C647.12 16.8 646.387 17.0667 645.787 17.6C645.204 18.1167 644.845 18.8417 644.712 19.775H651.287ZM656.567 21.075C656.567 19.6417 656.858 18.3917 657.442 17.325C658.025 16.2417 658.833 15.4083 659.867 14.825C660.9 14.225 662.083 13.925 663.417 13.925C665.133 13.925 666.55 14.3583 667.667 15.225C668.8 16.075 669.558 17.275 669.942 18.825H666.167C665.967 18.225 665.625 17.7583 665.142 17.425C664.675 17.075 664.092 16.9 663.392 16.9C662.392 16.9 661.6 17.2667 661.017 18C660.433 18.7167 660.142 19.7417 660.142 21.075C660.142 22.3917 660.433 23.4167 661.017 24.15C661.6 24.8667 662.392 25.225 663.392 25.225C664.808 25.225 665.733 24.5917 666.167 23.325H669.942C669.558 24.825 668.8 26.0167 667.667 26.9C666.533 27.7833 665.117 28.225 663.417 28.225C662.083 28.225 660.9 27.9333 659.867 27.35C658.833 26.75 658.025 25.9167 657.442 24.85C656.858 23.7667 656.567 22.5083 656.567 21.075ZM676.581 17.025V23.725C676.581 24.1917 676.689 24.5333 676.906 24.75C677.139 24.95 677.522 25.05 678.056 25.05H679.681V28H677.481C674.531 28 673.056 26.5667 673.056 23.7V17.025H671.406V14.15H673.056V10.725H676.581V14.15H679.681V17.025H676.581ZM683.973 12.5C683.356 12.5 682.84 12.3083 682.423 11.925C682.023 11.525 681.823 11.0333 681.823 10.45C681.823 9.86667 682.023 9.38333 682.423 9C682.84 8.6 683.356 8.4 683.973 8.4C684.59 8.4 685.098 8.6 685.498 9C685.915 9.38333 686.123 9.86667 686.123 10.45C686.123 11.0333 685.915 11.525 685.498 11.925C685.098 12.3083 684.59 12.5 683.973 12.5ZM685.698 14.15V28H682.198V14.15H685.698ZM695.306 28.225C693.973 28.225 692.773 27.9333 691.706 27.35C690.639 26.75 689.798 25.9083 689.181 24.825C688.581 23.7417 688.281 22.4917 688.281 21.075C688.281 19.6583 688.589 18.4083 689.206 17.325C689.839 16.2417 690.698 15.4083 691.781 14.825C692.864 14.225 694.073 13.925 695.406 13.925C696.739 13.925 697.948 14.225 699.031 14.825C700.114 15.4083 700.964 16.2417 701.581 17.325C702.214 18.4083 702.531 19.6583 702.531 21.075C702.531 22.4917 702.206 23.7417 701.556 24.825C700.923 25.9083 700.056 26.75 698.956 27.35C697.873 27.9333 696.656 28.225 695.306 28.225ZM695.306 25.175C695.939 25.175 696.531 25.025 697.081 24.725C697.648 24.4083 698.098 23.9417 698.431 23.325C698.764 22.7083 698.931 21.9583 698.931 21.075C698.931 19.7583 698.581 18.75 697.881 18.05C697.198 17.3333 696.356 16.975 695.356 16.975C694.356 16.975 693.514 17.3333 692.831 18.05C692.164 18.75 691.831 19.7583 691.831 21.075C691.831 22.3917 692.156 23.4083 692.806 24.125C693.473 24.825 694.306 25.175 695.306 25.175ZM712.773 13.95C714.423 13.95 715.757 14.475 716.773 15.525C717.79 16.5583 718.298 18.0083 718.298 19.875V28H714.798V20.35C714.798 19.25 714.523 18.4083 713.973 17.825C713.423 17.225 712.673 16.925 711.723 16.925C710.757 16.925 709.99 17.225 709.423 17.825C708.873 18.4083 708.598 19.25 708.598 20.35V28H705.098V14.15H708.598V15.875C709.065 15.275 709.657 14.8083 710.373 14.475C711.107 14.125 711.907 13.95 712.773 13.95Z" fill="#242424"/>
<path d="M470.173 62.14C468.88 62.14 467.687 61.84 466.593 61.24C465.513 60.6267 464.653 59.78 464.013 58.7C463.387 57.6067 463.073 56.38 463.073 55.02C463.073 53.66 463.387 52.44 464.013 51.36C464.653 50.28 465.513 49.44 466.593 48.84C467.687 48.2267 468.88 47.92 470.173 47.92C471.48 47.92 472.673 48.2267 473.753 48.84C474.847 49.44 475.707 50.28 476.333 51.36C476.96 52.44 477.273 53.66 477.273 55.02C477.273 56.38 476.96 57.6067 476.333 58.7C475.707 59.78 474.847 60.6267 473.753 61.24C472.673 61.84 471.48 62.14 470.173 62.14ZM470.173 60.16C471.093 60.16 471.913 59.9533 472.633 59.54C473.353 59.1133 473.913 58.5133 474.313 57.74C474.727 56.9533 474.933 56.0467 474.933 55.02C474.933 53.9933 474.727 53.0933 474.313 52.32C473.913 51.5467 473.353 50.9533 472.633 50.54C471.913 50.1267 471.093 49.92 470.173 49.92C469.253 49.92 468.433 50.1267 467.713 50.54C466.993 50.9533 466.427 51.5467 466.013 52.32C465.613 53.0933 465.413 53.9933 465.413 55.02C465.413 56.0467 465.613 56.9533 466.013 57.74C466.427 58.5133 466.993 59.1133 467.713 59.54C468.433 59.9533 469.253 60.16 470.173 60.16ZM483.777 59.96L486.897 50.98H489.317L485.117 62H482.397L478.217 50.98H480.657L483.777 59.96ZM501.14 56.22C501.14 56.6333 501.114 57.0067 501.06 57.34H492.64C492.707 58.22 493.034 58.9267 493.62 59.46C494.207 59.9933 494.927 60.26 495.78 60.26C497.007 60.26 497.874 59.7467 498.38 58.72H500.84C500.507 59.7333 499.9 60.5667 499.02 61.22C498.154 61.86 497.074 62.18 495.78 62.18C494.727 62.18 493.78 61.9467 492.94 61.48C492.114 61 491.46 60.3333 490.98 59.48C490.514 58.6133 490.28 57.6133 490.28 56.48C490.28 55.3467 490.507 54.3533 490.96 53.5C491.427 52.6333 492.074 51.9667 492.9 51.5C493.74 51.0333 494.7 50.8 495.78 50.8C496.82 50.8 497.747 51.0267 498.56 51.48C499.374 51.9333 500.007 52.5733 500.46 53.4C500.914 54.2133 501.14 55.1533 501.14 56.22ZM498.76 55.5C498.747 54.66 498.447 53.9867 497.86 53.48C497.274 52.9733 496.547 52.72 495.68 52.72C494.894 52.72 494.22 52.9733 493.66 53.48C493.1 53.9733 492.767 54.6467 492.66 55.5H498.76ZM505.664 52.58C505.997 52.02 506.437 51.5867 506.984 51.28C507.544 50.96 508.204 50.8 508.964 50.8V53.16H508.384C507.491 53.16 506.811 53.3867 506.344 53.84C505.891 54.2933 505.664 55.08 505.664 56.2V62H503.384V50.98H505.664V52.58ZM517.215 58.9C518.495 57.7933 519.502 56.8867 520.235 56.18C520.982 55.46 521.602 54.7133 522.095 53.94C522.589 53.1667 522.835 52.3933 522.835 51.62C522.835 50.82 522.642 50.1933 522.255 49.74C521.882 49.2867 521.289 49.06 520.475 49.06C519.689 49.06 519.075 49.3133 518.635 49.82C518.209 50.3133 517.982 50.98 517.955 51.82H515.755C515.795 50.3 516.249 49.14 517.115 48.34C517.995 47.5267 519.109 47.12 520.455 47.12C521.909 47.12 523.042 47.52 523.855 48.32C524.682 49.12 525.095 50.1867 525.095 51.52C525.095 52.48 524.849 53.4067 524.355 54.3C523.875 55.18 523.295 55.9733 522.615 56.68C521.949 57.3733 521.095 58.18 520.055 59.1L519.155 59.9H525.495V61.8H515.775V60.14L517.215 58.9ZM542.914 50.98L536.153 67.18H533.793L536.034 61.82L531.693 50.98H534.233L537.334 59.38L540.553 50.98H542.914ZM554.734 56.22C554.734 56.6333 554.707 57.0067 554.654 57.34H546.234C546.301 58.22 546.627 58.9267 547.214 59.46C547.801 59.9933 548.521 60.26 549.374 60.26C550.601 60.26 551.467 59.7467 551.974 58.72H554.434C554.101 59.7333 553.494 60.5667 552.614 61.22C551.747 61.86 550.667 62.18 549.374 62.18C548.321 62.18 547.374 61.9467 546.534 61.48C545.707 61 545.054 60.3333 544.574 59.48C544.107 58.6133 543.874 57.6133 543.874 56.48C543.874 55.3467 544.101 54.3533 544.554 53.5C545.021 52.6333 545.667 51.9667 546.494 51.5C547.334 51.0333 548.294 50.8 549.374 50.8C550.414 50.8 551.341 51.0267 552.154 51.48C552.967 51.9333 553.601 52.5733 554.054 53.4C554.507 54.2133 554.734 55.1533 554.734 56.22ZM552.354 55.5C552.341 54.66 552.041 53.9867 551.454 53.48C550.867 52.9733 550.141 52.72 549.274 52.72C548.487 52.72 547.814 52.9733 547.254 53.48C546.694 53.9733 546.361 54.6467 546.254 55.5H552.354ZM556.218 56.44C556.218 55.3333 556.445 54.3533 556.898 53.5C557.365 52.6467 557.991 51.9867 558.778 51.52C559.578 51.04 560.458 50.8 561.418 50.8C562.285 50.8 563.038 50.9733 563.678 51.32C564.331 51.6533 564.851 52.0733 565.238 52.58V50.98H567.538V62H565.238V60.36C564.851 60.88 564.325 61.3133 563.658 61.66C562.991 62.0067 562.231 62.18 561.378 62.18C560.431 62.18 559.565 61.94 558.778 61.46C557.991 60.9667 557.365 60.2867 556.898 59.42C556.445 58.54 556.218 57.5467 556.218 56.44ZM565.238 56.48C565.238 55.72 565.078 55.06 564.758 54.5C564.451 53.94 564.045 53.5133 563.538 53.22C563.031 52.9267 562.485 52.78 561.898 52.78C561.311 52.78 560.765 52.9267 560.258 53.22C559.751 53.5 559.338 53.92 559.018 54.48C558.711 55.0267 558.558 55.68 558.558 56.44C558.558 57.2 558.711 57.8667 559.018 58.44C559.338 59.0133 559.751 59.4533 560.258 59.76C560.778 60.0533 561.325 60.2 561.898 60.2C562.485 60.2 563.031 60.0533 563.538 59.76C564.045 59.4667 564.451 59.04 564.758 58.48C565.078 57.9067 565.238 57.24 565.238 56.48ZM572.813 52.58C573.146 52.02 573.586 51.5867 574.133 51.28C574.693 50.96 575.353 50.8 576.113 50.8V53.16H575.533C574.639 53.16 573.959 53.3867 573.493 53.84C573.039 54.2933 572.813 55.08 572.813 56.2V62H570.533V50.98H572.813V52.58ZM582.208 62.18C581.342 62.18 580.562 62.0267 579.868 61.72C579.188 61.4 578.648 60.9733 578.248 60.44C577.848 59.8933 577.635 59.2867 577.608 58.62H579.968C580.008 59.0867 580.228 59.48 580.628 59.8C581.042 60.1067 581.555 60.26 582.168 60.26C582.808 60.26 583.302 60.14 583.648 59.9C584.008 59.6467 584.188 59.3267 584.188 58.94C584.188 58.5267 583.988 58.22 583.588 58.02C583.202 57.82 582.582 57.6 581.728 57.36C580.902 57.1333 580.228 56.9133 579.708 56.7C579.188 56.4867 578.735 56.16 578.348 55.72C577.975 55.28 577.788 54.7 577.788 53.98C577.788 53.3933 577.962 52.86 578.308 52.38C578.655 51.8867 579.148 51.5 579.788 51.22C580.442 50.94 581.188 50.8 582.028 50.8C583.282 50.8 584.288 51.12 585.048 51.76C585.822 52.3867 586.235 53.2467 586.288 54.34H584.008C583.968 53.8467 583.768 53.4533 583.408 53.16C583.048 52.8667 582.562 52.72 581.948 52.72C581.348 52.72 580.888 52.8333 580.568 53.06C580.248 53.2867 580.088 53.5867 580.088 53.96C580.088 54.2533 580.195 54.5 580.408 54.7C580.622 54.9 580.882 55.06 581.188 55.18C581.495 55.2867 581.948 55.4267 582.548 55.6C583.348 55.8133 584.002 56.0333 584.508 56.26C585.028 56.4733 585.475 56.7933 585.848 57.22C586.222 57.6467 586.415 58.2133 586.428 58.92C586.428 59.5467 586.255 60.1067 585.908 60.6C585.562 61.0933 585.068 61.48 584.428 61.76C583.802 62.04 583.062 62.18 582.208 62.18Z" fill="#898989"/>
<g clip-path="url(#clip1_117_611)">
<path d="M831.015 36.1019V8.77964C831.015 7.80489 830.224 7.01465 829.25 7.01465H781.962C780.987 7.01465 780.197 7.80489 780.197 8.77964V38.28C779.345 38.404 778.513 38.7346 777.777 39.2812C775.455 40.9273 774.906 44.6109 776.851 46.8827L784.801 56.5204C789.722 62.2798 794.949 62.9854 802.72 62.9854C809.389 62.9854 812.371 63.0148 818.183 61.6905L823.843 60.3369C824.76 61.6184 826.217 62.4485 827.855 62.4485H830.643C833.413 62.4485 835.667 60.0744 835.667 57.1561V41.3784C835.667 38.592 833.612 36.3031 831.015 36.1019ZM823.081 39.7326L820.73 38.5382C816.863 36.5865 812.393 36.5142 808.465 38.3403C807.393 38.7618 805.056 40.1759 803.844 40.1286H795.683C792.977 40.1286 790.774 42.3307 790.774 45.0376V46.3247C790.759 46.3087 790.743 46.2936 790.728 46.2773L784.901 39.9519C784.548 39.5692 784.152 39.2489 783.727 38.9919V21.481H798.171V27.951C798.171 28.9257 798.961 29.7159 799.936 29.7159H811.073C812.048 29.7159 812.838 28.9257 812.838 27.951V21.481H827.485V36.1018C825.422 36.2611 823.703 37.7364 823.081 39.7326ZM801.701 21.481H809.308V26.186H801.701V21.481ZM827.485 17.951H812.838V10.5446H827.485V17.951H827.485ZM809.308 10.5446V17.9511H801.701V10.5446H809.308ZM798.171 10.5446V17.9511H783.727V10.5446H798.171ZM817.364 58.2568C811.995 59.4865 808.761 59.4367 802.784 59.4367C795.488 59.4367 791.964 59.3188 787.524 54.274L779.574 44.6363C778.191 42.8357 780.696 40.7101 782.305 42.3435L788.132 48.669C789.672 50.2941 791.61 51.1885 793.999 51.2411H810.156C811.13 51.2411 811.921 50.4508 811.921 49.4761C811.921 48.5013 811.13 47.7111 810.156 47.7111H794.304V45.0373C794.304 44.277 794.923 43.6583 795.683 43.6583H803.844C805.682 43.79 808.336 42.2549 809.953 41.541C812.895 40.1733 816.243 40.2274 819.135 41.6872L822.831 43.5646V56.9489L817.364 58.2568ZM832.137 57.156C832.137 58.1278 831.467 58.9184 830.643 58.9184H827.855C827.031 58.9184 826.361 58.1278 826.361 57.156V41.3784C826.361 40.4066 827.031 39.6159 827.855 39.6159H830.643C831.467 39.6159 832.137 40.4065 832.137 41.3784V57.156Z" fill="#242424"/>
</g>
<path d="M858.167 10.55V13.375H850.892V17.85H856.467V20.625H850.892V28H847.392V10.55H858.167ZM864.149 16.3C864.599 15.5667 865.182 14.9917 865.899 14.575C866.632 14.1583 867.465 13.95 868.399 13.95V17.625H867.474C866.374 17.625 865.54 17.8833 864.974 18.4C864.424 18.9167 864.149 19.8167 864.149 21.1V28H860.649V14.15H864.149V16.3ZM883.631 20.775C883.631 21.275 883.598 21.725 883.531 22.125H873.406C873.489 23.125 873.839 23.9083 874.456 24.475C875.073 25.0417 875.831 25.325 876.731 25.325C878.031 25.325 878.956 24.7667 879.506 23.65H883.281C882.881 24.9833 882.114 26.0833 880.981 26.95C879.848 27.8 878.456 28.225 876.806 28.225C875.473 28.225 874.273 27.9333 873.206 27.35C872.156 26.75 871.331 25.9083 870.731 24.825C870.148 23.7417 869.856 22.4917 869.856 21.075C869.856 19.6417 870.148 18.3833 870.731 17.3C871.314 16.2167 872.131 15.3833 873.181 14.8C874.231 14.2167 875.439 13.925 876.806 13.925C878.123 13.925 879.298 14.2083 880.331 14.775C881.381 15.3417 882.189 16.15 882.756 17.2C883.339 18.2333 883.631 19.425 883.631 20.775ZM880.006 19.775C879.989 18.875 879.664 18.1583 879.031 17.625C878.398 17.075 877.623 16.8 876.706 16.8C875.839 16.8 875.106 17.0667 874.506 17.6C873.923 18.1167 873.564 18.8417 873.431 19.775H880.006ZM899.061 20.775C899.061 21.275 899.027 21.725 898.961 22.125H888.836C888.919 23.125 889.269 23.9083 889.886 24.475C890.502 25.0417 891.261 25.325 892.161 25.325C893.461 25.325 894.386 24.7667 894.936 23.65H898.711C898.311 24.9833 897.544 26.0833 896.411 26.95C895.277 27.8 893.886 28.225 892.236 28.225C890.902 28.225 889.702 27.9333 888.636 27.35C887.586 26.75 886.761 25.9083 886.161 24.825C885.577 23.7417 885.286 22.4917 885.286 21.075C885.286 19.6417 885.577 18.3833 886.161 17.3C886.744 16.2167 887.561 15.3833 888.611 14.8C889.661 14.2167 890.869 13.925 892.236 13.925C893.552 13.925 894.727 14.2083 895.761 14.775C896.811 15.3417 897.619 16.15 898.186 17.2C898.769 18.2333 899.061 19.425 899.061 20.775ZM895.436 19.775C895.419 18.875 895.094 18.1583 894.461 17.625C893.827 17.075 893.052 16.8 892.136 16.8C891.269 16.8 890.536 17.0667 889.936 17.6C889.352 18.1167 888.994 18.8417 888.861 19.775H895.436ZM913.597 28.175C912.381 28.175 911.281 27.9667 910.297 27.55C909.331 27.1333 908.564 26.5333 907.997 25.75C907.431 24.9667 907.139 24.0417 907.122 22.975H910.872C910.922 23.6917 911.172 24.2583 911.622 24.675C912.089 25.0917 912.722 25.3 913.522 25.3C914.339 25.3 914.981 25.1083 915.447 24.725C915.914 24.325 916.147 23.8083 916.147 23.175C916.147 22.6583 915.989 22.2333 915.672 21.9C915.356 21.5667 914.956 21.3083 914.472 21.125C914.006 20.925 913.356 20.7083 912.522 20.475C911.389 20.1417 910.464 19.8167 909.747 19.5C909.047 19.1667 908.439 18.675 907.922 18.025C907.422 17.3583 907.172 16.475 907.172 15.375C907.172 14.3417 907.431 13.4417 907.947 12.675C908.464 11.9083 909.189 11.325 910.122 10.925C911.056 10.5083 912.122 10.3 913.322 10.3C915.122 10.3 916.581 10.7417 917.697 11.625C918.831 12.4917 919.456 13.7083 919.572 15.275H915.722C915.689 14.675 915.431 14.1833 914.947 13.8C914.481 13.4 913.856 13.2 913.072 13.2C912.389 13.2 911.839 13.375 911.422 13.725C911.022 14.075 910.822 14.5833 910.822 15.25C910.822 15.7167 910.972 16.1083 911.272 16.425C911.589 16.725 911.972 16.975 912.422 17.175C912.889 17.3583 913.539 17.575 914.372 17.825C915.506 18.1583 916.431 18.4917 917.147 18.825C917.864 19.1583 918.481 19.6583 918.997 20.325C919.514 20.9917 919.772 21.8667 919.772 22.95C919.772 23.8833 919.531 24.75 919.047 25.55C918.564 26.35 917.856 26.9917 916.922 27.475C915.989 27.9417 914.881 28.175 913.597 28.175ZM930.607 13.95C931.657 13.95 932.59 14.1833 933.407 14.65C934.223 15.1 934.857 15.775 935.307 16.675C935.773 17.5583 936.007 18.625 936.007 19.875V28H932.507V20.35C932.507 19.25 932.232 18.4083 931.682 17.825C931.132 17.225 930.382 16.925 929.432 16.925C928.465 16.925 927.698 17.225 927.132 17.825C926.582 18.4083 926.307 19.25 926.307 20.35V28H922.807V9.5H926.307V15.875C926.757 15.275 927.357 14.8083 928.107 14.475C928.857 14.125 929.69 13.95 930.607 13.95ZM941.11 12.5C940.493 12.5 939.977 12.3083 939.56 11.925C939.16 11.525 938.96 11.0333 938.96 10.45C938.96 9.86667 939.16 9.38333 939.56 9C939.977 8.6 940.493 8.4 941.11 8.4C941.727 8.4 942.235 8.6 942.635 9C943.052 9.38333 943.26 9.86667 943.26 10.45C943.26 11.0333 943.052 11.525 942.635 11.925C942.235 12.3083 941.727 12.5 941.11 12.5ZM942.835 14.15V28H939.335V14.15H942.835ZM949.793 16.15C950.243 15.5167 950.86 14.9917 951.643 14.575C952.443 14.1417 953.351 13.925 954.368 13.925C955.551 13.925 956.618 14.2167 957.568 14.8C958.535 15.3833 959.293 16.2167 959.843 17.3C960.41 18.3667 960.693 19.6083 960.693 21.025C960.693 22.4417 960.41 23.7 959.843 24.8C959.293 25.8833 958.535 26.725 957.568 27.325C956.618 27.925 955.551 28.225 954.368 28.225C953.351 28.225 952.451 28.0167 951.668 27.6C950.901 27.1833 950.276 26.6583 949.793 26.025V34.6H946.293V14.15H949.793V16.15ZM957.118 21.025C957.118 20.1917 956.943 19.475 956.593 18.875C956.26 18.2583 955.81 17.7917 955.243 17.475C954.693 17.1583 954.093 17 953.443 17C952.81 17 952.21 17.1667 951.643 17.5C951.093 17.8167 950.643 18.2833 950.293 18.9C949.96 19.5167 949.793 20.2417 949.793 21.075C949.793 21.9083 949.96 22.6333 950.293 23.25C950.643 23.8667 951.093 24.3417 951.643 24.675C952.21 24.9917 952.81 25.15 953.443 25.15C954.093 25.15 954.693 24.9833 955.243 24.65C955.81 24.3167 956.26 23.8417 956.593 23.225C956.943 22.6083 957.118 21.875 957.118 21.025ZM966.736 16.15C967.186 15.5167 967.803 14.9917 968.586 14.575C969.386 14.1417 970.295 13.925 971.311 13.925C972.495 13.925 973.561 14.2167 974.511 14.8C975.478 15.3833 976.236 16.2167 976.786 17.3C977.353 18.3667 977.636 19.6083 977.636 21.025C977.636 22.4417 977.353 23.7 976.786 24.8C976.236 25.8833 975.478 26.725 974.511 27.325C973.561 27.925 972.495 28.225 971.311 28.225C970.295 28.225 969.395 28.0167 968.611 27.6C967.845 27.1833 967.22 26.6583 966.736 26.025V34.6H963.236V14.15H966.736V16.15ZM974.061 21.025C974.061 20.1917 973.886 19.475 973.536 18.875C973.203 18.2583 972.753 17.7917 972.186 17.475C971.636 17.1583 971.036 17 970.386 17C969.753 17 969.153 17.1667 968.586 17.5C968.036 17.8167 967.586 18.2833 967.236 18.9C966.903 19.5167 966.736 20.2417 966.736 21.075C966.736 21.9083 966.903 22.6333 967.236 23.25C967.586 23.8667 968.036 24.3417 968.586 24.675C969.153 24.9917 969.753 25.15 970.386 25.15C971.036 25.15 971.636 24.9833 972.186 24.65C972.753 24.3167 973.203 23.8417 973.536 23.225C973.886 22.6083 974.061 21.875 974.061 21.025ZM981.955 12.5C981.338 12.5 980.821 12.3083 980.405 11.925C980.005 11.525 979.805 11.0333 979.805 10.45C979.805 9.86667 980.005 9.38333 980.405 9C980.821 8.6 981.338 8.4 981.955 8.4C982.571 8.4 983.08 8.6 983.48 9C983.896 9.38333 984.105 9.86667 984.105 10.45C984.105 11.0333 983.896 11.525 983.48 11.925C983.08 12.3083 982.571 12.5 981.955 12.5ZM983.68 14.15V28H980.18V14.15H983.68ZM994.813 13.95C996.463 13.95 997.796 14.475 998.813 15.525C999.829 16.5583 1000.34 18.0083 1000.34 19.875V28H996.838V20.35C996.838 19.25 996.563 18.4083 996.013 17.825C995.463 17.225 994.713 16.925 993.763 16.925C992.796 16.925 992.029 17.225 991.463 17.825C990.913 18.4083 990.638 19.25 990.638 20.35V28H987.138V14.15H990.638V15.875C991.104 15.275 991.696 14.8083 992.413 14.475C993.146 14.125 993.946 13.95 994.813 13.95ZM1009.09 13.925C1010.12 13.925 1011.03 14.1333 1011.82 14.55C1012.6 14.95 1013.22 15.475 1013.67 16.125V14.15H1017.19V28.1C1017.19 29.3833 1016.93 30.525 1016.42 31.525C1015.9 32.5417 1015.12 33.3417 1014.09 33.925C1013.06 34.525 1011.81 34.825 1010.34 34.825C1008.37 34.825 1006.76 34.3667 1005.49 33.45C1004.24 32.5333 1003.53 31.2833 1003.37 29.7H1006.84C1007.02 30.3333 1007.42 30.8333 1008.02 31.2C1008.63 31.5833 1009.37 31.775 1010.24 31.775C1011.26 31.775 1012.08 31.4667 1012.72 30.85C1013.35 30.25 1013.67 29.3333 1013.67 28.1V25.95C1013.22 26.6 1012.59 27.1417 1011.79 27.575C1011.01 28.0083 1010.11 28.225 1009.09 28.225C1007.92 28.225 1006.86 27.925 1005.89 27.325C1004.92 26.725 1004.16 25.8833 1003.59 24.8C1003.04 23.7 1002.77 22.4417 1002.77 21.025C1002.77 19.625 1003.04 18.3833 1003.59 17.3C1004.16 16.2167 1004.92 15.3833 1005.87 14.8C1006.83 14.2167 1007.91 13.925 1009.09 13.925ZM1013.67 21.075C1013.67 20.225 1013.5 19.5 1013.17 18.9C1012.83 18.2833 1012.38 17.8167 1011.82 17.5C1011.25 17.1667 1010.64 17 1009.99 17C1009.34 17 1008.74 17.1583 1008.19 17.475C1007.64 17.7917 1007.19 18.2583 1006.84 18.875C1006.51 19.475 1006.34 20.1917 1006.34 21.025C1006.34 21.8583 1006.51 22.5917 1006.84 23.225C1007.19 23.8417 1007.64 24.3167 1008.19 24.65C1008.76 24.9833 1009.36 25.15 1009.99 25.15C1010.64 25.15 1011.25 24.9917 1011.82 24.675C1012.38 24.3417 1012.83 23.875 1013.17 23.275C1013.5 22.6583 1013.67 21.925 1013.67 21.075Z" fill="#242424"/>
<path d="M853.507 62.14C852.213 62.14 851.02 61.84 849.927 61.24C848.847 60.6267 847.987 59.78 847.347 58.7C846.72 57.6067 846.407 56.38 846.407 55.02C846.407 53.66 846.72 52.44 847.347 51.36C847.987 50.28 848.847 49.44 849.927 48.84C851.02 48.2267 852.213 47.92 853.507 47.92C854.813 47.92 856.007 48.2267 857.087 48.84C858.18 49.44 859.04 50.28 859.667 51.36C860.293 52.44 860.607 53.66 860.607 55.02C860.607 56.38 860.293 57.6067 859.667 58.7C859.04 59.78 858.18 60.6267 857.087 61.24C856.007 61.84 854.813 62.14 853.507 62.14ZM853.507 60.16C854.427 60.16 855.247 59.9533 855.967 59.54C856.687 59.1133 857.247 58.5133 857.647 57.74C858.06 56.9533 858.267 56.0467 858.267 55.02C858.267 53.9933 858.06 53.0933 857.647 52.32C857.247 51.5467 856.687 50.9533 855.967 50.54C855.247 50.1267 854.427 49.92 853.507 49.92C852.587 49.92 851.767 50.1267 851.047 50.54C850.327 50.9533 849.76 51.5467 849.347 52.32C848.947 53.0933 848.747 53.9933 848.747 55.02C848.747 56.0467 848.947 56.9533 849.347 57.74C849.76 58.5133 850.327 59.1133 851.047 59.54C851.767 59.9533 852.587 60.16 853.507 60.16ZM865.13 52.58C865.464 52.02 865.904 51.5867 866.45 51.28C867.01 50.96 867.67 50.8 868.43 50.8V53.16H867.85C866.957 53.16 866.277 53.3867 865.81 53.84C865.357 54.2933 865.13 55.08 865.13 56.2V62H862.85V50.98H865.13V52.58ZM869.766 56.44C869.766 55.3333 869.993 54.3533 870.446 53.5C870.913 52.6467 871.539 51.9867 872.326 51.52C873.126 51.04 874.013 50.8 874.986 50.8C875.706 50.8 876.413 50.96 877.106 51.28C877.813 51.5867 878.373 52 878.786 52.52V47.2H881.086V62H878.786V60.34C878.413 60.8733 877.893 61.3133 877.226 61.66C876.573 62.0067 875.819 62.18 874.966 62.18C874.006 62.18 873.126 61.94 872.326 61.46C871.539 60.9667 870.913 60.2867 870.446 59.42C869.993 58.54 869.766 57.5467 869.766 56.44ZM878.786 56.48C878.786 55.72 878.626 55.06 878.306 54.5C877.999 53.94 877.593 53.5133 877.086 53.22C876.579 52.9267 876.033 52.78 875.446 52.78C874.859 52.78 874.313 52.9267 873.806 53.22C873.299 53.5 872.886 53.92 872.566 54.48C872.259 55.0267 872.106 55.68 872.106 56.44C872.106 57.2 872.259 57.8667 872.566 58.44C872.886 59.0133 873.299 59.4533 873.806 59.76C874.326 60.0533 874.873 60.2 875.446 60.2C876.033 60.2 876.579 60.0533 877.086 59.76C877.593 59.4667 877.999 59.04 878.306 58.48C878.626 57.9067 878.786 57.24 878.786 56.48ZM894.181 56.22C894.181 56.6333 894.154 57.0067 894.101 57.34H885.681C885.747 58.22 886.074 58.9267 886.661 59.46C887.247 59.9933 887.967 60.26 888.821 60.26C890.047 60.26 890.914 59.7467 891.421 58.72H893.881C893.547 59.7333 892.941 60.5667 892.061 61.22C891.194 61.86 890.114 62.18 888.821 62.18C887.767 62.18 886.821 61.9467 885.981 61.48C885.154 61 884.501 60.3333 884.021 59.48C883.554 58.6133 883.321 57.6133 883.321 56.48C883.321 55.3467 883.547 54.3533 884.001 53.5C884.467 52.6333 885.114 51.9667 885.941 51.5C886.781 51.0333 887.741 50.8 888.821 50.8C889.861 50.8 890.787 51.0267 891.601 51.48C892.414 51.9333 893.047 52.5733 893.501 53.4C893.954 54.2133 894.181 55.1533 894.181 56.22ZM891.801 55.5C891.787 54.66 891.487 53.9867 890.901 53.48C890.314 52.9733 889.587 52.72 888.721 52.72C887.934 52.72 887.261 52.9733 886.701 53.48C886.141 53.9733 885.807 54.6467 885.701 55.5H891.801ZM898.704 52.58C899.038 52.02 899.478 51.5867 900.025 51.28C900.584 50.96 901.244 50.8 902.004 50.8V53.16H901.424C900.531 53.16 899.851 53.3867 899.384 53.84C898.931 54.2933 898.704 55.08 898.704 56.2V62H896.424V50.98H898.704V52.58ZM914.076 62.18C913.036 62.18 912.096 61.9467 911.256 61.48C910.416 61 909.756 60.3333 909.276 59.48C908.796 58.6133 908.556 57.6133 908.556 56.48C908.556 55.36 908.802 54.3667 909.296 53.5C909.789 52.6333 910.462 51.9667 911.316 51.5C912.169 51.0333 913.122 50.8 914.176 50.8C915.229 50.8 916.182 51.0333 917.036 51.5C917.889 51.9667 918.562 52.6333 919.056 53.5C919.549 54.3667 919.796 55.36 919.796 56.48C919.796 57.6 919.542 58.5933 919.036 59.46C918.529 60.3267 917.836 61 916.956 61.48C916.089 61.9467 915.129 62.18 914.076 62.18ZM914.076 60.2C914.662 60.2 915.209 60.06 915.716 59.78C916.236 59.5 916.656 59.08 916.976 58.52C917.296 57.96 917.456 57.28 917.456 56.48C917.456 55.68 917.302 55.0067 916.996 54.46C916.689 53.9 916.282 53.48 915.776 53.2C915.269 52.92 914.722 52.78 914.136 52.78C913.549 52.78 913.002 52.92 912.496 53.2C912.002 53.48 911.609 53.9 911.316 54.46C911.022 55.0067 910.876 55.68 910.876 56.48C910.876 57.6667 911.176 58.5867 911.776 59.24C912.389 59.88 913.156 60.2 914.076 60.2ZM926.309 59.96L929.43 50.98H931.849L927.649 62H924.929L920.749 50.98H923.189L926.309 59.96ZM943.673 56.22C943.673 56.6333 943.646 57.0067 943.593 57.34H935.173C935.24 58.22 935.566 58.9267 936.153 59.46C936.74 59.9933 937.46 60.26 938.313 60.26C939.54 60.26 940.406 59.7467 940.913 58.72H943.373C943.04 59.7333 942.433 60.5667 941.553 61.22C940.686 61.86 939.606 62.18 938.313 62.18C937.26 62.18 936.313 61.9467 935.473 61.48C934.646 61 933.993 60.3333 933.513 59.48C933.046 58.6133 932.813 57.6133 932.813 56.48C932.813 55.3467 933.04 54.3533 933.493 53.5C933.96 52.6333 934.606 51.9667 935.433 51.5C936.273 51.0333 937.233 50.8 938.313 50.8C939.353 50.8 940.28 51.0267 941.093 51.48C941.906 51.9333 942.54 52.5733 942.993 53.4C943.446 54.2133 943.673 55.1533 943.673 56.22ZM941.293 55.5C941.28 54.66 940.98 53.9867 940.393 53.48C939.806 52.9733 939.08 52.72 938.213 52.72C937.426 52.72 936.753 52.9733 936.193 53.48C935.633 53.9733 935.3 54.6467 935.193 55.5H941.293ZM948.197 52.58C948.53 52.02 948.97 51.5867 949.517 51.28C950.077 50.96 950.737 50.8 951.497 50.8V53.16H950.917C950.023 53.16 949.343 53.3867 948.877 53.84C948.423 54.2933 948.197 55.08 948.197 56.2V62H945.917V50.98H948.197V52.58ZM958.188 49.5V47.42H962.348V62H960.048V49.5H958.188ZM974.88 49.38H968.18V53.36C968.46 52.9867 968.873 52.6733 969.42 52.42C969.98 52.1667 970.573 52.04 971.2 52.04C972.32 52.04 973.227 52.28 973.92 52.76C974.627 53.24 975.127 53.8467 975.42 54.58C975.727 55.3133 975.88 56.0867 975.88 56.9C975.88 57.8867 975.687 58.7667 975.3 59.54C974.927 60.3 974.36 60.9 973.6 61.34C972.853 61.78 971.933 62 970.84 62C969.387 62 968.22 61.64 967.34 60.92C966.46 60.2 965.933 59.2467 965.76 58.06H967.98C968.127 58.6867 968.453 59.1867 968.96 59.56C969.467 59.92 970.1 60.1 970.86 60.1C971.807 60.1 972.513 59.8133 972.98 59.24C973.46 58.6667 973.7 57.9067 973.7 56.96C973.7 56 973.46 55.2667 972.98 54.76C972.5 54.24 971.793 53.98 970.86 53.98C970.207 53.98 969.653 54.1467 969.2 54.48C968.76 54.8 968.44 55.24 968.24 55.8H966.08V47.38H974.88V49.38ZM978.253 54.52C978.253 52.2133 978.64 50.4133 979.413 49.12C980.2 47.8133 981.547 47.16 983.453 47.16C985.36 47.16 986.7 47.8133 987.473 49.12C988.26 50.4133 988.653 52.2133 988.653 54.52C988.653 56.8533 988.26 58.68 987.473 60C986.7 61.3067 985.36 61.96 983.453 61.96C981.547 61.96 980.2 61.3067 979.413 60C978.64 58.68 978.253 56.8533 978.253 54.52ZM986.413 54.52C986.413 53.44 986.34 52.5267 986.193 51.78C986.06 51.0333 985.78 50.4267 985.353 49.96C984.927 49.48 984.293 49.24 983.453 49.24C982.613 49.24 981.98 49.48 981.553 49.96C981.127 50.4267 980.84 51.0333 980.693 51.78C980.56 52.5267 980.493 53.44 980.493 54.52C980.493 55.64 980.56 56.58 980.693 57.34C980.827 58.1 981.107 58.7133 981.533 59.18C981.973 59.6467 982.613 59.88 983.453 59.88C984.293 59.88 984.927 59.6467 985.353 59.18C985.793 58.7133 986.08 58.1 986.213 57.34C986.347 56.58 986.413 55.64 986.413 54.52ZM1005.94 58.04C1005.94 58.7067 1005.77 59.3333 1005.44 59.92C1005.12 60.5067 1004.64 61 1004 61.4C1003.37 61.8 1002.63 62.04 1001.76 62.12V63.74H1000.46V62.12C999.208 62 998.195 61.6067 997.421 60.94C996.648 60.2733 996.261 59.3933 996.261 58.3H998.701C998.741 58.82 998.908 59.2533 999.201 59.6C999.495 59.9333 999.915 60.1467 1000.46 60.24V55.84C999.568 55.6133 998.841 55.3867 998.281 55.16C997.721 54.92 997.241 54.5467 996.841 54.04C996.455 53.5333 996.261 52.84 996.261 51.96C996.261 50.8533 996.648 49.94 997.421 49.22C998.195 48.4867 999.208 48.06 1000.46 47.94V46.32H1001.76V47.94C1002.93 48.0467 1003.87 48.42 1004.58 49.06C1005.3 49.6867 1005.71 50.5533 1005.8 51.66H1003.36C1003.32 51.2467 1003.16 50.88 1002.88 50.56C1002.6 50.2267 1002.23 50 1001.76 49.88V54.2C1002.65 54.4133 1003.38 54.64 1003.94 54.88C1004.5 55.1067 1004.97 55.4733 1005.36 55.98C1005.75 56.4733 1005.94 57.16 1005.94 58.04ZM998.581 51.84C998.581 52.3867 998.741 52.8133 999.061 53.12C999.395 53.4267 999.861 53.6733 1000.46 53.86V49.82C999.888 49.8867 999.428 50.0933 999.081 50.44C998.748 50.7867 998.581 51.2533 998.581 51.84ZM1001.76 60.24C1002.35 60.1467 1002.81 59.9133 1003.14 59.54C1003.47 59.1533 1003.64 58.6933 1003.64 58.16C1003.64 57.6267 1003.47 57.2133 1003.14 56.92C1002.82 56.6133 1002.36 56.3667 1001.76 56.18V60.24Z" fill="#898989"/>
<g clip-path="url(#clip2_117_611)">
<path d="M1129.69 28.9628C1129.3 15.6825 1118.37 5 1105 5C1091.63 5 1080.7 15.6825 1080.31 28.9628L1078.53 30.7396V42.7898L1080.29 44.5545V52.7647C1080.29 57.5652 1084.2 61.4706 1089 61.4706H1091.19C1091.91 63.5246 1093.88 65 1096.18 65H1099.71C1102.01 65 1103.97 63.5225 1104.7 61.4664C1104.8 61.4681 1104.9 61.4706 1105 61.4706C1113.52 61.4706 1120.65 55.3981 1122.29 47.3529H1126.91L1131.47 42.7898V30.7396L1129.69 28.9628ZM1105 8.52941C1115.47 8.52941 1124.2 16.174 1125.88 26.1765H1122.29C1120.65 18.1313 1113.52 12.0588 1105 12.0588C1096.48 12.0588 1089.35 18.1313 1087.71 26.1765H1084.12C1085.8 16.174 1094.53 8.52941 1105 8.52941ZM1118.67 26.1765C1112.97 26.1594 1108.94 26.5068 1105.61 21.6506L1104 19.2926L1102.62 21.7907C1100.6 25.4306 1097.87 26.1765 1094.41 26.1765H1091.33C1092.9 20.0944 1098.43 15.5882 1105 15.5882C1111.57 15.5882 1117.1 20.0944 1118.67 26.1765ZM1087.35 43.8235H1084.55L1082.06 41.3279V32.2015L1084.55 29.7059H1087.35V43.8235ZM1083.82 52.7647V47.3529H1087.7C1088.37 50.6441 1089.96 53.6652 1092.31 56.0916C1091.82 56.6191 1091.43 57.2467 1091.19 57.9412H1089C1086.15 57.9412 1083.82 55.6191 1083.82 52.7647ZM1099.71 61.4706H1096.18C1095.2 61.4706 1094.41 60.6791 1094.41 59.7059C1094.41 58.7328 1095.2 57.9412 1096.18 57.9412H1099.71C1100.68 57.9412 1101.47 58.7328 1101.47 59.7059C1101.47 60.6791 1100.68 61.4706 1099.71 61.4706ZM1119.12 43.8235C1119.12 51.608 1112.78 57.9412 1105 57.9412C1104.9 57.9412 1104.8 57.9392 1104.69 57.9368C1103.97 55.8851 1102 54.4118 1099.71 54.4118C1096.08 54.4198 1096.14 54.3936 1095.69 54.4352C1092.62 51.7498 1090.88 47.9248 1090.88 43.8235V29.7059H1094.41C1097.53 29.7059 1101.34 29.1909 1104.28 25.6076C1108.17 29.6786 1112.91 29.7059 1117.18 29.7059H1119.12V43.8235ZM1127.94 41.3279L1125.45 43.8235H1122.65V29.7059H1125.45L1127.94 32.2015V41.3279Z" fill="#242424"/>
</g>
<path d="M1147.43 24.05C1149.03 22.7167 1150.3 21.6083 1151.25 20.725C1152.2 19.825 1152.99 18.8917 1153.63 17.925C1154.26 16.9583 1154.58 16.0083 1154.58 15.075C1154.58 14.225 1154.38 13.5583 1153.98 13.075C1153.58 12.5917 1152.96 12.35 1152.13 12.35C1151.29 12.35 1150.65 12.6333 1150.2 13.2C1149.75 13.75 1149.52 14.5083 1149.5 15.475H1146.1C1146.17 13.475 1146.76 11.9583 1147.88 10.925C1149.01 9.89167 1150.44 9.375 1152.18 9.375C1154.08 9.375 1155.53 9.88333 1156.55 10.9C1157.57 11.9 1158.08 13.225 1158.08 14.875C1158.08 16.175 1157.73 17.4167 1157.03 18.6C1156.33 19.7833 1155.53 20.8167 1154.63 21.7C1153.73 22.5667 1152.55 23.6167 1151.1 24.85H1158.48V27.75H1146.13V25.15L1147.43 24.05ZM1160.53 24.45V21.7L1168.71 10H1172.78V21.4H1174.98V24.45H1172.78V28H1169.28V24.45H1160.53ZM1169.51 13.75L1164.38 21.4H1169.51V13.75ZM1192.94 4.325L1186.19 32.525H1182.77L1189.52 4.325H1192.94ZM1212.88 12.425L1206.23 28H1202.68L1209.38 12.825H1200.83V9.825H1212.88V12.425ZM1227.36 28.175C1226.14 28.175 1225.04 27.9667 1224.06 27.55C1223.09 27.1333 1222.33 26.5333 1221.76 25.75C1221.19 24.9667 1220.9 24.0417 1220.88 22.975H1224.63C1224.68 23.6917 1224.93 24.2583 1225.38 24.675C1225.85 25.0917 1226.48 25.3 1227.28 25.3C1228.1 25.3 1228.74 25.1083 1229.21 24.725C1229.68 24.325 1229.91 23.8083 1229.91 23.175C1229.91 22.6583 1229.75 22.2333 1229.43 21.9C1229.12 21.5667 1228.72 21.3083 1228.23 21.125C1227.77 20.925 1227.12 20.7083 1226.28 20.475C1225.15 20.1417 1224.23 19.8167 1223.51 19.5C1222.81 19.1667 1222.2 18.675 1221.68 18.025C1221.18 17.3583 1220.93 16.475 1220.93 15.375C1220.93 14.3417 1221.19 13.4417 1221.71 12.675C1222.23 11.9083 1222.95 11.325 1223.88 10.925C1224.82 10.5083 1225.88 10.3 1227.08 10.3C1228.88 10.3 1230.34 10.7417 1231.46 11.625C1232.59 12.4917 1233.22 13.7083 1233.33 15.275H1229.48C1229.45 14.675 1229.19 14.1833 1228.71 13.8C1228.24 13.4 1227.62 13.2 1226.83 13.2C1226.15 13.2 1225.6 13.375 1225.18 13.725C1224.78 14.075 1224.58 14.5833 1224.58 15.25C1224.58 15.7167 1224.73 16.1083 1225.03 16.425C1225.35 16.725 1225.73 16.975 1226.18 17.175C1226.65 17.3583 1227.3 17.575 1228.13 17.825C1229.27 18.1583 1230.19 18.4917 1230.91 18.825C1231.63 19.1583 1232.24 19.6583 1232.76 20.325C1233.28 20.9917 1233.53 21.8667 1233.53 22.95C1233.53 23.8833 1233.29 24.75 1232.81 25.55C1232.33 26.35 1231.62 26.9917 1230.68 27.475C1229.75 27.9417 1228.64 28.175 1227.36 28.175ZM1249.64 14.15V28H1246.12V26.25C1245.67 26.85 1245.08 27.325 1244.34 27.675C1243.63 28.0083 1242.84 28.175 1241.99 28.175C1240.91 28.175 1239.95 27.95 1239.12 27.5C1238.29 27.0333 1237.63 26.3583 1237.14 25.475C1236.68 24.575 1236.44 23.5083 1236.44 22.275V14.15H1239.94V21.775C1239.94 22.875 1240.22 23.725 1240.77 24.325C1241.32 24.9083 1242.07 25.2 1243.02 25.2C1243.99 25.2 1244.74 24.9083 1245.29 24.325C1245.84 23.725 1246.12 22.875 1246.12 21.775V14.15H1249.64ZM1256.6 16.15C1257.05 15.5167 1257.66 14.9917 1258.45 14.575C1259.25 14.1417 1260.16 13.925 1261.17 13.925C1262.36 13.925 1263.42 14.2167 1264.37 14.8C1265.34 15.3833 1266.1 16.2167 1266.65 17.3C1267.21 18.3667 1267.5 19.6083 1267.5 21.025C1267.5 22.4417 1267.21 23.7 1266.65 24.8C1266.1 25.8833 1265.34 26.725 1264.37 27.325C1263.42 27.925 1262.36 28.225 1261.17 28.225C1260.16 28.225 1259.26 28.0167 1258.47 27.6C1257.71 27.1833 1257.08 26.6583 1256.6 26.025V34.6H1253.1V14.15H1256.6V16.15ZM1263.92 21.025C1263.92 20.1917 1263.75 19.475 1263.4 18.875C1263.06 18.2583 1262.61 17.7917 1262.05 17.475C1261.5 17.1583 1260.9 17 1260.25 17C1259.61 17 1259.01 17.1667 1258.45 17.5C1257.9 17.8167 1257.45 18.2833 1257.1 18.9C1256.76 19.5167 1256.6 20.2417 1256.6 21.075C1256.6 21.9083 1256.76 22.6333 1257.1 23.25C1257.45 23.8667 1257.9 24.3417 1258.45 24.675C1259.01 24.9917 1259.61 25.15 1260.25 25.15C1260.9 25.15 1261.5 24.9833 1262.05 24.65C1262.61 24.3167 1263.06 23.8417 1263.4 23.225C1263.75 22.6083 1263.92 21.875 1263.92 21.025ZM1273.54 16.15C1273.99 15.5167 1274.61 14.9917 1275.39 14.575C1276.19 14.1417 1277.1 13.925 1278.12 13.925C1279.3 13.925 1280.37 14.2167 1281.32 14.8C1282.28 15.3833 1283.04 16.2167 1283.59 17.3C1284.16 18.3667 1284.44 19.6083 1284.44 21.025C1284.44 22.4417 1284.16 23.7 1283.59 24.8C1283.04 25.8833 1282.28 26.725 1281.32 27.325C1280.37 27.925 1279.3 28.225 1278.12 28.225C1277.1 28.225 1276.2 28.0167 1275.42 27.6C1274.65 27.1833 1274.02 26.6583 1273.54 26.025V34.6H1270.04V14.15H1273.54V16.15ZM1280.87 21.025C1280.87 20.1917 1280.69 19.475 1280.34 18.875C1280.01 18.2583 1279.56 17.7917 1278.99 17.475C1278.44 17.1583 1277.84 17 1277.19 17C1276.56 17 1275.96 17.1667 1275.39 17.5C1274.84 17.8167 1274.39 18.2833 1274.04 18.9C1273.71 19.5167 1273.54 20.2417 1273.54 21.075C1273.54 21.9083 1273.71 22.6333 1274.04 23.25C1274.39 23.8667 1274.84 24.3417 1275.39 24.675C1275.96 24.9917 1276.56 25.15 1277.19 25.15C1277.84 25.15 1278.44 24.9833 1278.99 24.65C1279.56 24.3167 1280.01 23.8417 1280.34 23.225C1280.69 22.6083 1280.87 21.875 1280.87 21.025ZM1293.13 28.225C1291.8 28.225 1290.6 27.9333 1289.53 27.35C1288.47 26.75 1287.63 25.9083 1287.01 24.825C1286.41 23.7417 1286.11 22.4917 1286.11 21.075C1286.11 19.6583 1286.42 18.4083 1287.03 17.325C1287.67 16.2417 1288.53 15.4083 1289.61 14.825C1290.69 14.225 1291.9 13.925 1293.23 13.925C1294.57 13.925 1295.78 14.225 1296.86 14.825C1297.94 15.4083 1298.79 16.2417 1299.41 17.325C1300.04 18.4083 1300.36 19.6583 1300.36 21.075C1300.36 22.4917 1300.03 23.7417 1299.38 24.825C1298.75 25.9083 1297.88 26.75 1296.78 27.35C1295.7 27.9333 1294.48 28.225 1293.13 28.225ZM1293.13 25.175C1293.77 25.175 1294.36 25.025 1294.91 24.725C1295.48 24.4083 1295.93 23.9417 1296.26 23.325C1296.59 22.7083 1296.76 21.9583 1296.76 21.075C1296.76 19.7583 1296.41 18.75 1295.71 18.05C1295.03 17.3333 1294.18 16.975 1293.18 16.975C1292.18 16.975 1291.34 17.3333 1290.66 18.05C1289.99 18.75 1289.66 19.7583 1289.66 21.075C1289.66 22.3917 1289.98 23.4083 1290.63 24.125C1291.3 24.825 1292.13 25.175 1293.13 25.175ZM1306.43 16.3C1306.88 15.5667 1307.46 14.9917 1308.18 14.575C1308.91 14.1583 1309.74 13.95 1310.68 13.95V17.625H1309.75C1308.65 17.625 1307.82 17.8833 1307.25 18.4C1306.7 18.9167 1306.43 19.8167 1306.43 21.1V28H1302.93V14.15H1306.43V16.3ZM1317.11 17.025V23.725C1317.11 24.1917 1317.22 24.5333 1317.43 24.75C1317.67 24.95 1318.05 25.05 1318.58 25.05H1320.21V28H1318.01C1315.06 28 1313.58 26.5667 1313.58 23.7V17.025H1311.93V14.15H1313.58V10.725H1317.11V14.15H1320.21V17.025H1317.11Z" fill="#242424"/>
<path d="M1151.04 48.1C1152.52 48.1 1153.81 48.3867 1154.92 48.96C1156.04 49.52 1156.9 50.3333 1157.5 51.4C1158.11 52.4533 1158.42 53.6867 1158.42 55.1C1158.42 56.5133 1158.11 57.74 1157.5 58.78C1156.9 59.82 1156.04 60.62 1154.92 61.18C1153.81 61.7267 1152.52 62 1151.04 62H1146.5V48.1H1151.04ZM1151.04 60.14C1152.67 60.14 1153.91 59.7 1154.78 58.82C1155.65 57.94 1156.08 56.7 1156.08 55.1C1156.08 53.4867 1155.65 52.2267 1154.78 51.32C1153.91 50.4133 1152.67 49.96 1151.04 49.96H1148.78V60.14H1151.04ZM1170.78 56.22C1170.78 56.6333 1170.75 57.0067 1170.7 57.34H1162.28C1162.35 58.22 1162.67 58.9267 1163.26 59.46C1163.85 59.9933 1164.57 60.26 1165.42 60.26C1166.65 60.26 1167.51 59.7467 1168.02 58.72H1170.48C1170.15 59.7333 1169.54 60.5667 1168.66 61.22C1167.79 61.86 1166.71 62.18 1165.42 62.18C1164.37 62.18 1163.42 61.9467 1162.58 61.48C1161.75 61 1161.1 60.3333 1160.62 59.48C1160.15 58.6133 1159.92 57.6133 1159.92 56.48C1159.92 55.3467 1160.15 54.3533 1160.6 53.5C1161.07 52.6333 1161.71 51.9667 1162.54 51.5C1163.38 51.0333 1164.34 50.8 1165.42 50.8C1166.46 50.8 1167.39 51.0267 1168.2 51.48C1169.01 51.9333 1169.65 52.5733 1170.1 53.4C1170.55 54.2133 1170.78 55.1533 1170.78 56.22ZM1168.4 55.5C1168.39 54.66 1168.09 53.9867 1167.5 53.48C1166.91 52.9733 1166.19 52.72 1165.32 52.72C1164.53 52.72 1163.86 52.9733 1163.3 53.48C1162.74 53.9733 1162.41 54.6467 1162.3 55.5H1168.4ZM1172.26 56.44C1172.26 55.3333 1172.49 54.3533 1172.94 53.5C1173.41 52.6467 1174.04 51.9867 1174.82 51.52C1175.62 51.04 1176.51 50.8 1177.48 50.8C1178.2 50.8 1178.91 50.96 1179.6 51.28C1180.31 51.5867 1180.87 52 1181.28 52.52V47.2H1183.58V62H1181.28V60.34C1180.91 60.8733 1180.39 61.3133 1179.72 61.66C1179.07 62.0067 1178.32 62.18 1177.46 62.18C1176.5 62.18 1175.62 61.94 1174.82 61.46C1174.04 60.9667 1173.41 60.2867 1172.94 59.42C1172.49 58.54 1172.26 57.5467 1172.26 56.44ZM1181.28 56.48C1181.28 55.72 1181.12 55.06 1180.8 54.5C1180.5 53.94 1180.09 53.5133 1179.58 53.22C1179.08 52.9267 1178.53 52.78 1177.94 52.78C1177.36 52.78 1176.81 52.9267 1176.3 53.22C1175.8 53.5 1175.38 53.92 1175.06 54.48C1174.76 55.0267 1174.6 55.68 1174.6 56.44C1174.6 57.2 1174.76 57.8667 1175.06 58.44C1175.38 59.0133 1175.8 59.4533 1176.3 59.76C1176.82 60.0533 1177.37 60.2 1177.94 60.2C1178.53 60.2 1179.08 60.0533 1179.58 59.76C1180.09 59.4667 1180.5 59.04 1180.8 58.48C1181.12 57.9067 1181.28 57.24 1181.28 56.48ZM1187.74 49.52C1187.32 49.52 1186.98 49.38 1186.7 49.1C1186.42 48.82 1186.28 48.4733 1186.28 48.06C1186.28 47.6467 1186.42 47.3 1186.7 47.02C1186.98 46.74 1187.32 46.6 1187.74 46.6C1188.14 46.6 1188.48 46.74 1188.76 47.02C1189.04 47.3 1189.18 47.6467 1189.18 48.06C1189.18 48.4733 1189.04 48.82 1188.76 49.1C1188.48 49.38 1188.14 49.52 1187.74 49.52ZM1188.86 50.98V62H1186.58V50.98H1188.86ZM1191.09 56.48C1191.09 55.3467 1191.32 54.3533 1191.77 53.5C1192.24 52.6333 1192.88 51.9667 1193.69 51.5C1194.5 51.0333 1195.44 50.8 1196.49 50.8C1197.82 50.8 1198.92 51.12 1199.79 51.76C1200.67 52.3867 1201.26 53.2867 1201.57 54.46H1199.11C1198.91 53.9133 1198.59 53.4867 1198.15 53.18C1197.71 52.8733 1197.16 52.72 1196.49 52.72C1195.56 52.72 1194.81 53.0533 1194.25 53.72C1193.7 54.3733 1193.43 55.2933 1193.43 56.48C1193.43 57.6667 1193.7 58.5933 1194.25 59.26C1194.81 59.9267 1195.56 60.26 1196.49 60.26C1197.81 60.26 1198.68 59.68 1199.11 58.52H1201.57C1201.25 59.64 1200.65 60.5333 1199.77 61.2C1198.89 61.8533 1197.8 62.18 1196.49 62.18C1195.44 62.18 1194.5 61.9467 1193.69 61.48C1192.88 61 1192.24 60.3333 1191.77 59.48C1191.32 58.6133 1191.09 57.6133 1191.09 56.48ZM1203.08 56.44C1203.08 55.3333 1203.31 54.3533 1203.76 53.5C1204.23 52.6467 1204.86 51.9867 1205.64 51.52C1206.44 51.04 1207.32 50.8 1208.28 50.8C1209.15 50.8 1209.9 50.9733 1210.54 51.32C1211.2 51.6533 1211.72 52.0733 1212.1 52.58V50.98H1214.4V62H1212.1V60.36C1211.72 60.88 1211.19 61.3133 1210.52 61.66C1209.86 62.0067 1209.1 62.18 1208.24 62.18C1207.3 62.18 1206.43 61.94 1205.64 61.46C1204.86 60.9667 1204.23 60.2867 1203.76 59.42C1203.31 58.54 1203.08 57.5467 1203.08 56.44ZM1212.1 56.48C1212.1 55.72 1211.94 55.06 1211.62 54.5C1211.32 53.94 1210.91 53.5133 1210.4 53.22C1209.9 52.9267 1209.35 52.78 1208.76 52.78C1208.18 52.78 1207.63 52.9267 1207.12 53.22C1206.62 53.5 1206.2 53.92 1205.88 54.48C1205.58 55.0267 1205.42 55.68 1205.42 56.44C1205.42 57.2 1205.58 57.8667 1205.88 58.44C1206.2 59.0133 1206.62 59.4533 1207.12 59.76C1207.64 60.0533 1208.19 60.2 1208.76 60.2C1209.35 60.2 1209.9 60.0533 1210.4 59.76C1210.91 59.4667 1211.32 59.04 1211.62 58.48C1211.94 57.9067 1212.1 57.24 1212.1 56.48ZM1220.06 52.84V58.94C1220.06 59.3533 1220.15 59.6533 1220.34 59.84C1220.54 60.0133 1220.87 60.1 1221.34 60.1H1222.74V62H1220.94C1219.91 62 1219.13 61.76 1218.58 61.28C1218.03 60.8 1217.76 60.02 1217.76 58.94V52.84H1216.46V50.98H1217.76V48.24H1220.06V50.98H1222.74V52.84H1220.06ZM1234.94 56.22C1234.94 56.6333 1234.91 57.0067 1234.86 57.34H1226.44C1226.51 58.22 1226.83 58.9267 1227.42 59.46C1228.01 59.9933 1228.73 60.26 1229.58 60.26C1230.81 60.26 1231.67 59.7467 1232.18 58.72H1234.64C1234.31 59.7333 1233.7 60.5667 1232.82 61.22C1231.95 61.86 1230.87 62.18 1229.58 62.18C1228.53 62.18 1227.58 61.9467 1226.74 61.48C1225.91 61 1225.26 60.3333 1224.78 59.48C1224.31 58.6133 1224.08 57.6133 1224.08 56.48C1224.08 55.3467 1224.31 54.3533 1224.76 53.5C1225.23 52.6333 1225.87 51.9667 1226.7 51.5C1227.54 51.0333 1228.5 50.8 1229.58 50.8C1230.62 50.8 1231.55 51.0267 1232.36 51.48C1233.17 51.9333 1233.81 52.5733 1234.26 53.4C1234.71 54.2133 1234.94 55.1533 1234.94 56.22ZM1232.56 55.5C1232.55 54.66 1232.25 53.9867 1231.66 53.48C1231.07 52.9733 1230.35 52.72 1229.48 52.72C1228.69 52.72 1228.02 52.9733 1227.46 53.48C1226.9 53.9733 1226.57 54.6467 1226.46 55.5H1232.56ZM1236.42 56.44C1236.42 55.3333 1236.65 54.3533 1237.1 53.5C1237.57 52.6467 1238.2 51.9867 1238.98 51.52C1239.78 51.04 1240.67 50.8 1241.64 50.8C1242.36 50.8 1243.07 50.96 1243.76 51.28C1244.47 51.5867 1245.03 52 1245.44 52.52V47.2H1247.74V62H1245.44V60.34C1245.07 60.8733 1244.55 61.3133 1243.88 61.66C1243.23 62.0067 1242.48 62.18 1241.62 62.18C1240.66 62.18 1239.78 61.94 1238.98 61.46C1238.2 60.9667 1237.57 60.2867 1237.1 59.42C1236.65 58.54 1236.42 57.5467 1236.42 56.44ZM1245.44 56.48C1245.44 55.72 1245.28 55.06 1244.96 54.5C1244.66 53.94 1244.25 53.5133 1243.74 53.22C1243.24 52.9267 1242.69 52.78 1242.1 52.78C1241.52 52.78 1240.97 52.9267 1240.46 53.22C1239.96 53.5 1239.54 53.92 1239.22 54.48C1238.92 55.0267 1238.76 55.68 1238.76 56.44C1238.76 57.2 1238.92 57.8667 1239.22 58.44C1239.54 59.0133 1239.96 59.4533 1240.46 59.76C1240.98 60.0533 1241.53 60.2 1242.1 60.2C1242.69 60.2 1243.24 60.0533 1243.74 59.76C1244.25 59.4667 1244.66 59.04 1244.96 58.48C1245.28 57.9067 1245.44 57.24 1245.44 56.48ZM1259.93 62.18C1259.07 62.18 1258.29 62.0267 1257.59 61.72C1256.91 61.4 1256.37 60.9733 1255.97 60.44C1255.57 59.8933 1255.36 59.2867 1255.33 58.62H1257.69C1257.73 59.0867 1257.95 59.48 1258.35 59.8C1258.77 60.1067 1259.28 60.26 1259.89 60.26C1260.53 60.26 1261.03 60.14 1261.37 59.9C1261.73 59.6467 1261.91 59.3267 1261.91 58.94C1261.91 58.5267 1261.71 58.22 1261.31 58.02C1260.93 57.82 1260.31 57.6 1259.45 57.36C1258.63 57.1333 1257.95 56.9133 1257.43 56.7C1256.91 56.4867 1256.46 56.16 1256.07 55.72C1255.7 55.28 1255.51 54.7 1255.51 53.98C1255.51 53.3933 1255.69 52.86 1256.03 52.38C1256.38 51.8867 1256.87 51.5 1257.51 51.22C1258.17 50.94 1258.91 50.8 1259.75 50.8C1261.01 50.8 1262.01 51.12 1262.77 51.76C1263.55 52.3867 1263.96 53.2467 1264.01 54.34H1261.73C1261.69 53.8467 1261.49 53.4533 1261.13 53.16C1260.77 52.8667 1260.29 52.72 1259.67 52.72C1259.07 52.72 1258.61 52.8333 1258.29 53.06C1257.97 53.2867 1257.81 53.5867 1257.81 53.96C1257.81 54.2533 1257.92 54.5 1258.13 54.7C1258.35 54.9 1258.61 55.06 1258.91 55.18C1259.22 55.2867 1259.67 55.4267 1260.27 55.6C1261.07 55.8133 1261.73 56.0333 1262.23 56.26C1262.75 56.4733 1263.2 56.7933 1263.57 57.22C1263.95 57.6467 1264.14 58.2133 1264.15 58.92C1264.15 59.5467 1263.98 60.1067 1263.63 60.6C1263.29 61.0933 1262.79 61.48 1262.15 61.76C1261.53 62.04 1260.79 62.18 1259.93 62.18ZM1276.6 50.98V62H1274.32V60.7C1273.96 61.1533 1273.48 61.5133 1272.9 61.78C1272.32 62.0333 1271.71 62.16 1271.06 62.16C1270.19 62.16 1269.41 61.98 1268.72 61.62C1268.04 61.26 1267.5 60.7267 1267.1 60.02C1266.71 59.3133 1266.52 58.46 1266.52 57.46V50.98H1268.78V57.12C1268.78 58.1067 1269.02 58.8667 1269.52 59.4C1270.01 59.92 1270.68 60.18 1271.54 60.18C1272.39 60.18 1273.06 59.92 1273.56 59.4C1274.06 58.8667 1274.32 58.1067 1274.32 57.12V50.98H1276.6ZM1281.89 52.6C1282.27 52.0933 1282.8 51.6667 1283.47 51.32C1284.13 50.9733 1284.89 50.8 1285.73 50.8C1286.69 50.8 1287.56 51.04 1288.35 51.52C1289.15 51.9867 1289.77 52.6467 1290.23 53.5C1290.68 54.3533 1290.91 55.3333 1290.91 56.44C1290.91 57.5467 1290.68 58.54 1290.23 59.42C1289.77 60.2867 1289.15 60.9667 1288.35 61.46C1287.56 61.94 1286.69 62.18 1285.73 62.18C1284.89 62.18 1284.14 62.0133 1283.49 61.68C1282.83 61.3333 1282.3 60.9067 1281.89 60.4V67.24H1279.61V50.98H1281.89V52.6ZM1288.59 56.44C1288.59 55.68 1288.43 55.0267 1288.11 54.48C1287.8 53.92 1287.39 53.5 1286.87 53.22C1286.36 52.9267 1285.81 52.78 1285.23 52.78C1284.65 52.78 1284.11 52.9267 1283.59 53.22C1283.08 53.5133 1282.67 53.94 1282.35 54.5C1282.04 55.06 1281.89 55.72 1281.89 56.48C1281.89 57.24 1282.04 57.9067 1282.35 58.48C1282.67 59.04 1283.08 59.4667 1283.59 59.76C1284.11 60.0533 1284.65 60.2 1285.23 60.2C1285.81 60.2 1286.36 60.0533 1286.87 59.76C1287.39 59.4533 1287.8 59.0133 1288.11 58.44C1288.43 57.8667 1288.59 57.2 1288.59 56.44ZM1295.44 52.6C1295.83 52.0933 1296.35 51.6667 1297.02 51.32C1297.69 50.9733 1298.44 50.8 1299.28 50.8C1300.24 50.8 1301.11 51.04 1301.9 51.52C1302.7 51.9867 1303.33 52.6467 1303.78 53.5C1304.23 54.3533 1304.46 55.3333 1304.46 56.44C1304.46 57.5467 1304.23 58.54 1303.78 59.42C1303.33 60.2867 1302.7 60.9667 1301.9 61.46C1301.11 61.94 1300.24 62.18 1299.28 62.18C1298.44 62.18 1297.69 62.0133 1297.04 61.68C1296.39 61.3333 1295.85 60.9067 1295.44 60.4V67.24H1293.16V50.98H1295.44V52.6ZM1302.14 56.44C1302.14 55.68 1301.98 55.0267 1301.66 54.48C1301.35 53.92 1300.94 53.5 1300.42 53.22C1299.91 52.9267 1299.37 52.78 1298.78 52.78C1298.21 52.78 1297.66 52.9267 1297.14 53.22C1296.63 53.5133 1296.22 53.94 1295.9 54.5C1295.59 55.06 1295.44 55.72 1295.44 56.48C1295.44 57.24 1295.59 57.9067 1295.9 58.48C1296.22 59.04 1296.63 59.4667 1297.14 59.76C1297.66 60.0533 1298.21 60.2 1298.78 60.2C1299.37 60.2 1299.91 60.0533 1300.42 59.76C1300.94 59.4533 1301.35 59.0133 1301.66 58.44C1301.98 57.8667 1302.14 57.2 1302.14 56.44ZM1311.49 62.18C1310.45 62.18 1309.51 61.9467 1308.67 61.48C1307.83 61 1307.17 60.3333 1306.69 59.48C1306.21 58.6133 1305.97 57.6133 1305.97 56.48C1305.97 55.36 1306.22 54.3667 1306.71 53.5C1307.21 52.6333 1307.88 51.9667 1308.73 51.5C1309.59 51.0333 1310.54 50.8 1311.59 50.8C1312.65 50.8 1313.6 51.0333 1314.45 51.5C1315.31 51.9667 1315.98 52.6333 1316.47 53.5C1316.97 54.3667 1317.21 55.36 1317.21 56.48C1317.21 57.6 1316.96 58.5933 1316.45 59.46C1315.95 60.3267 1315.25 61 1314.37 61.48C1313.51 61.9467 1312.55 62.18 1311.49 62.18ZM1311.49 60.2C1312.08 60.2 1312.63 60.06 1313.13 59.78C1313.65 59.5 1314.07 59.08 1314.39 58.52C1314.71 57.96 1314.87 57.28 1314.87 56.48C1314.87 55.68 1314.72 55.0067 1314.41 54.46C1314.11 53.9 1313.7 53.48 1313.19 53.2C1312.69 52.92 1312.14 52.78 1311.55 52.78C1310.97 52.78 1310.42 52.92 1309.91 53.2C1309.42 53.48 1309.03 53.9 1308.73 54.46C1308.44 55.0067 1308.29 55.68 1308.29 56.48C1308.29 57.6667 1308.59 58.5867 1309.19 59.24C1309.81 59.88 1310.57 60.2 1311.49 60.2ZM1321.75 52.58C1322.08 52.02 1322.52 51.5867 1323.07 51.28C1323.63 50.96 1324.29 50.8 1325.05 50.8V53.16H1324.47C1323.58 53.16 1322.9 53.3867 1322.43 53.84C1321.98 54.2933 1321.75 55.08 1321.75 56.2V62H1319.47V50.98H1321.75V52.58ZM1329.8 52.84V58.94C1329.8 59.3533 1329.9 59.6533 1330.08 59.84C1330.28 60.0133 1330.62 60.1 1331.08 60.1H1332.48V62H1330.68C1329.66 62 1328.87 61.76 1328.32 61.28C1327.78 60.8 1327.5 60.02 1327.5 58.94V52.84H1326.2V50.98H1327.5V48.24H1329.8V50.98H1332.48V52.84H1329.8Z" fill="#898989"/>
<defs>
<clipPath id="clip0_117_611">
<rect width="60" height="60" fill="white" transform="translate(392.333 5)"/>
</clipPath>
<clipPath id="clip1_117_611">
<rect width="60" height="60" fill="white" transform="translate(775.667 5)"/>
</clipPath>
<clipPath id="clip2_117_611">
<rect width="60" height="60" fill="white" transform="translate(1075 5)"/>
</clipPath>
</defs>
</svg>
